<svg xmlns="http://www.w3.org/2000/svg" width="310" height="110" viewBox="0 0 310 110">
  <path fill="#F7F7EF" fill-rule="evenodd" d="M230.081483,65.7942906 C230.504165,65.7942906 230.886591,65.7640234 230.886591,65.2523627 C230.886591,64.8387102 230.511354,64.7594388 230.161994,64.7594388 L229.477652,64.7594388 L229.477652,65.7942906 L230.081483,65.7942906 Z M229.477652,67.6708603 L228.970147,67.6708603 L228.970147,64.3356973 L230.238192,64.3356973 C231.023172,64.3356973 231.409912,64.6239568 231.409912,65.2811886 C231.409912,65.8793272 231.040425,66.1402021 230.553047,66.2007366 L231.497611,67.6708603 L230.932598,67.6708603 L230.05273,66.2209148 L229.477652,66.2209148 L229.477652,67.6708603 Z M227.155778,65.9960723 C227.155778,64.3356973 228.498583,63.1077116 230.084359,63.1077116 C231.655757,63.1077116 233,64.3356973 233,65.9960723 C233,67.6708603 231.655757,68.8916396 230.084359,68.8916396 C228.498583,68.8916396 227.155778,67.6708603 227.155778,65.9960723 L227.155778,65.9960723 Z M230.084359,68.4102461 C231.389784,68.4102461 232.419172,67.3869247 232.419172,65.9960723 C232.419172,64.6239568 231.389784,63.5948702 230.084359,63.5948702 C228.764557,63.5948702 227.736606,64.6239568 227.736606,65.9960723 C227.736606,67.3869247 228.764557,68.4102461 230.084359,68.4102461 L230.084359,68.4102461 Z M214.678041,48.3747657 C215.359508,48.405033 216.200558,48.6659079 216.591611,49.2827833 C217.336336,49.9962257 217.078989,51.5917424 217.271639,52.5314685 C217.432661,55.1676021 217.303269,56.9548114 217.142247,59.4569043 C217.045922,60.3995131 216.591611,60.9875626 215.682989,61.3781542 C213.640027,61.7010049 211.434606,61.7010049 209.292444,61.7341548 C207.411941,61.7341548 205.597573,61.7010049 203.745824,61.5064297 C202.968033,61.3781542 202.384329,60.7612788 202.158611,60.1112535 C201.606537,57.2445122 201.675547,54.160135 201.868198,50.9417171 L201.899827,50.9417171 C201.899827,50.0625254 202.319633,49.053617 203.259884,48.6976164 C205.20652,48.2075752 207.151719,48.3747657 209.066726,48.2450489 C211.013362,48.2450489 212.798977,48.3387333 214.678041,48.3747657 L214.678041,48.3747657 Z M201.088968,41.4478886 C198.23371,41.6741724 195.706246,43.2682477 194.474143,45.4777572 C193.076705,47.7550077 193.306736,50.2282747 193.141402,53.0892507 L193.174468,52.7620761 C193.049389,54.2192282 193.206098,55.9156357 193.206098,57.3756703 C193.403062,59.7192205 193.336928,62.3870627 194.569031,64.3688471 C194.76887,64.954014 195.182925,65.3431644 195.576853,65.8663555 C197.651444,68.2718815 200.798554,68.6581493 203.944226,68.7878661 L204.073618,68.7273316 L204.138315,68.821016 C208.613853,69.0501823 212.959998,69.0170325 217.271639,68.5961735 C220.092393,68.4650154 222.750687,67.2298232 224.212821,65.0837308 C226.124952,62.4187712 225.866168,58.9048873 225.930864,55.4616269 C225.930864,52.1437594 225.897797,48.8921916 224.89285,46.2243494 C223.725443,43.5954223 221.098778,41.6741724 217.790647,41.3498804 C212.114635,40.8973129 206.635587,40.8627217 201.088968,41.4478886 L201.088968,41.4478886 Z M180.481078,41.8860431 L180.443698,42.9915185 C180.511269,43.608394 180.481078,44.5221768 180.443698,45.2024693 L180.511269,53.7868389 C180.511269,55.3765903 180.577403,57.3929659 180.542898,59.1513492 C180.673729,62.1088922 180.542898,65.781319 180.673729,68.4491611 L180.738425,68.5140195 L189.043977,68.5140195 L189.203561,68.4188939 L189.167618,64.092118 C189.105797,62.7257677 189.23519,61.3940085 189.071293,59.9642411 L189.105797,58.9553327 L189.043977,50.3724044 L189.006597,41.8860431 C189.006597,41.9177517 188.974967,41.8528933 188.9419,41.8211847 C186.188719,41.7894762 183.36509,41.8211847 180.481078,41.8860431 L180.481078,41.8860431 Z M154.957715,41.3815889 C153.331685,41.4824798 151.485687,41.6741724 150.18745,42.4870643 C148.076917,43.6573981 146.877881,46.0312155 146.817498,48.405033 C146.748489,49.9011001 146.748489,51.0051342 147.070532,52.470934 C147.493214,54.7453019 149.408221,56.565661 151.873864,57.2445122 C154.987907,57.7979706 158.196837,57.6682538 161.371263,57.8988614 C162.803206,57.9637198 164.396169,58.0285782 165.786418,58.0617281 C166.595839,58.0919953 167.572033,58.1928862 168.188803,58.739138 C168.738002,59.2320619 168.673306,59.9455043 168.771069,60.6301207 C168.673306,61.4747212 168.250624,62.2227547 167.409574,62.4821883 C164.357352,62.9030473 161.277813,62.7416219 158.294601,62.6825287 C157.291091,62.6825287 156.189818,62.6133464 155.633431,61.8941389 C155.276883,61.4401301 155.276883,60.8909956 155.210749,60.3043874 C152.553893,60.2726789 149.43985,60.3043874 146.817498,60.3692458 C146.817498,61.7341548 146.942577,63.0673552 147.396888,64.3356973 C148.141613,66.4817897 150.18745,68.1090149 152.620027,68.4650154 C156.382469,68.9204655 160.048586,69.0501823 163.743457,68.9536154 C166.789928,68.7575989 169.872342,68.888757 172.790858,68.0110066 C175.286693,66.9357985 176.845152,64.7234064 177.042116,62.0584468 C177.203138,59.687512 177.137004,57.3136945 176.068798,55.4947767 C174.966088,53.2780608 172.271851,52.2734762 169.614995,52.2086178 C165.171086,51.9823341 160.858007,51.7848763 156.480232,51.5917424 L155.767136,51.3986085 C155.08567,51.0368427 154.825448,50.2556593 154.825448,49.605634 C154.857077,48.7624748 155.118737,47.9495829 156.025921,47.592141 C157.387416,47.2981163 158.911371,47.3946832 160.303058,47.2981163 C162.380524,47.2361405 164.486744,47.267849 166.466447,47.4955741 C167.409574,47.9193156 167.633854,48.7307663 167.602224,49.7396747 C170.326653,49.8016505 172.98926,49.7396747 175.646116,49.702201 C175.775509,49.702201 175.87471,49.8016505 176.004102,49.6704924 C175.97391,48.7307663 175.87471,47.7550077 175.680621,46.9406744 C175.094042,44.2094151 172.95188,41.9984644 169.872342,41.5444556 C164.974122,41.0241471 160.048586,41.0241471 154.957715,41.3815889 L154.957715,41.3815889 Z M129.818217,47.3802703 C131.245846,50.8292958 132.417566,54.2725562 133.807815,57.7215818 L133.779061,57.8167074 C130.631951,57.8469747 127.877331,57.8844484 124.730222,57.8469747 C124.632459,57.7864402 124.694279,57.5904237 124.763289,57.4909741 C126.093155,54.0736571 127.129731,50.8292958 128.489789,47.4451287 C128.846336,47.3182944 129.401286,47.3802703 129.818217,47.3802703 L129.818217,47.3802703 Z M132.477949,41.3657346 L123.203392,41.4291517 L122.977674,41.4940101 C121.841897,44.3578688 120.578164,47.2808207 119.40932,50.2109791 L119.40932,50.1792705 C119.346062,50.5021212 119.245423,50.6635466 119.116031,50.8927129 C116.717959,56.8395076 114.383146,62.4966013 111.983636,68.3799788 C114.837457,68.5140195 118.01332,68.4491611 120.969217,68.3799788 C121.453719,67.0856934 122.03886,65.4901768 122.521925,64.0618507 C122.622564,63.8989841 122.652755,63.6381092 122.816652,63.5703682 L135.691192,63.5040685 L135.853652,63.6049593 C136.47186,65.1961521 137.055563,66.628802 137.570257,68.2199948 L137.699649,68.3194443 C140.779188,68.3194443 143.733647,68.2877358 146.64785,68.2877358 L146.686668,68.1868449 C142.957292,59.2781834 138.963382,50.1115295 135.269948,41.3974432 L132.477949,41.3657346 Z M102.092309,41.202868 L102.092309,41.2360178 C104.753479,41.2677264 107.833017,41.8860431 109.354096,43.9643945 C110.977251,45.8207861 111.430124,48.6154624 111.336674,51.2833046 C108.352024,51.3452804 105.692292,51.2515961 102.740708,51.2833046 C102.576811,51.0224297 102.707642,50.4704127 102.576811,50.0783797 C102.480486,49.3966458 101.995984,48.7783291 101.28145,48.5203368 C99.8854503,48.2594619 98.4290674,48.2911704 97.0992014,48.2277533 C94.3057641,48.2594619 91.6489076,48.1614536 88.9561087,48.6457297 C87.2049988,49.5580712 87.8203313,51.5758881 87.5629843,53.2333805 C87.4652212,55.3146145 87.5931758,57.5904237 87.8577113,59.8965001 C88.018733,60.645975 88.40691,61.0999838 89.1171303,61.4271584 C92.1348478,61.9474669 95.799527,61.7514504 98.8790653,61.6851507 C100.208931,61.5568752 102.157005,61.7514504 102.740708,60.4168086 C103.065627,59.8345243 102.933359,58.8241746 103.065627,58.2375664 L111.562392,58.1784732 L111.691785,58.2072991 C111.822615,61.2931177 111.430124,64.9396011 108.705696,66.9228268 C107.475031,67.92597 105.916572,68.4491611 104.360988,68.5428455 C98.590089,69.0991864 93.3036921,69.1654861 87.5931758,68.6437363 C84.8054893,68.5140195 82.1126904,67.1779365 80.6879368,64.9396011 C79.6484848,63.2835499 79.3551954,61.846576 79.1941738,59.7956093 C79.0331522,57.0672326 78.9037598,54.5319898 79.0964107,51.9001801 C79.0647815,48.6832034 79.6168555,45.0741938 82.5684391,43.0246684 C84.4475037,41.52716 87.1086733,41.4291517 89.5081828,41.2360178 C93.5610392,40.9131671 97.8424887,40.9405518 102.092309,41.202868 L102.092309,41.202868 Z"/>
</svg>
