<svg xmlns="http://www.w3.org/2000/svg" width="310" height="110" viewBox="0 0 310 110">
  <path fill="#F7F7EF" fill-rule="evenodd" d="M67.4283229,44.6427548 C66.8077948,42.4297172 64.704894,41.3853992 62.4755893,41.3853992 C59.7948422,41.3461145 56.9860497,42.8045587 56.6166877,45.4775545 L55.1293902,55.8699922 C54.7583866,58.5004297 57.2749728,59.8344723 60.0000433,59.8344723 C62.7234722,59.8344723 65.6521022,58.5004297 66.0247474,55.8699922 L66.3136706,53.699513 L59.67008,53.699513 L60.3726885,48.523755 L72.5452174,48.523755 L71.5553273,55.8699922 C70.6064775,62.5074682 64.7475758,65.8466669 59.0101532,65.8057454 C53.3548111,65.7648238 48.1952348,62.4256251 49.1046861,55.8699922 L50.5887004,45.1419978 C51.458753,38.6731186 57.6082194,35.4190367 63.3013185,35.4190367 C67.2625204,35.4190367 71.1416419,37.0460777 72.7093783,41.6783975 L67.4283229,44.6427548 Z M85.4597534,48.9837132 C83.7278562,47.8559152 79.6812906,48.3993534 79.310287,51.1541924 L78.3630788,57.9995499 C78.1545945,59.5873061 79.4760895,60.5039489 80.9601038,60.5039489 C82.1995184,60.5039489 83.2320904,60.1700291 83.9757391,59.7133445 L85.4597534,48.9820764 L85.4597534,48.9837132 Z M83.6851744,63.6352662 C82.5278402,65.0118673 80.7549027,65.8073822 79.2282066,65.8073822 C75.391767,65.8073822 71.8836491,63.1753079 72.584616,58.2925482 L73.5745061,51.195114 C74.4002353,45.353153 79.0640457,43.3479969 83.7278562,43.3479969 C86.3265228,43.3479969 89.3388749,44.2679134 91.5681796,45.4759177 L88.8841493,65.3883455 L84.1825818,65.3883455 L83.6851744,63.6352662 Z M93.3394754,46.0209928 C95.4029776,44.3906781 98.6205308,43.3479969 101.345601,43.3479969 C103.409103,43.3479969 105.845251,43.8505136 106.71202,46.0619143 C107.450744,45.2041986 108.33393,44.5379957 109.36486,44.0649425 C110.394149,43.5902525 111.477611,43.3512706 112.610321,43.3479969 C116.533765,43.3479969 120.204403,45.8098375 119.546118,50.7367926 L117.523656,65.3899824 L111.827273,65.3899824 L113.849735,50.6107542 C114.056578,49.3176331 112.859845,48.6923518 111.57939,48.6923518 C110.300577,48.6923518 108.980724,49.3601915 108.814921,50.5698326 L106.753061,65.3899824 L101.263521,65.3899824 L103.285983,50.7367926 C103.450144,49.484593 102.212371,48.7332733 100.810437,48.6923518 C99.9863493,48.6923518 99.0752564,48.9411548 98.4580115,49.5271515 L96.2713887,65.3899824 L90.6570867,65.3899824 L93.3394754,46.0209928 Z M126.020622,52.9907517 C126.959623,53.2935712 127.923247,53.4474363 128.909854,53.4490731 C130.393868,53.4490731 132.086367,52.6159103 132.252169,51.1541924 C132.459012,49.3601915 131.014396,48.6497933 129.612462,48.6497933 C128.126806,48.6497933 126.475348,49.7350329 126.268505,51.2802308 L126.022264,52.9907517 L126.020622,52.9907517 Z M135.802969,61.3387486 C133.201019,64.5961043 129.981824,65.8073822 127.176315,65.8073822 C122.965589,65.8073822 119.004387,63.1753079 119.706995,58.0830298 L120.654203,51.3211524 C121.401135,46.0602774 125.981224,43.3479969 130.315071,43.3479969 C134.647276,43.3479969 138.403277,46.0602774 137.659628,51.195114 C136.833899,57.2465933 129.653503,58.7083112 125.485458,57.0387118 L125.319655,58.081393 C125.073414,59.8361092 126.60011,60.7118304 128.374689,60.7118304 C129.901386,60.7118304 131.593884,60.0865491 132.544376,58.9587511 L135.802969,61.3387486 Z M150.697285,48.9837132 C153.378032,48.9837132 155.195293,47.8984736 155.566297,45.3105946 C155.938942,42.8061955 154.205403,42.0123174 151.646135,42.0123174 L146.240317,42.0123174 L145.291468,48.9837132 L150.697285,48.9837132 Z M146.652361,54.578508 L144.506779,54.578508 L143.021123,65.3883455 L136.911055,65.3883455 L141.000302,35.8347997 L152.514546,35.8347997 C158.373448,35.8347997 162.418372,38.5470802 161.633683,45.269673 C160.891675,50.695871 158.084525,53.3246716 153.752319,54.1611082 L160.931074,65.3883455 L153.463396,65.3883455 L146.652361,54.578508 Z M166.914738,52.9907517 C167.852097,53.2935712 168.815721,53.4474363 169.802328,53.4490731 C171.287984,53.4490731 172.980482,52.6159103 173.144643,51.1541924 C173.349844,49.3601915 171.908512,48.6497933 170.504936,48.6497933 C169.017639,48.6497933 167.367822,49.7350329 167.159338,51.2802308 L166.914738,52.9907517 Z M176.695443,61.3387486 C174.093493,64.5961043 170.874298,65.8073822 168.067147,65.8073822 C163.859704,65.8073822 159.896861,63.1753079 160.599469,58.0830298 L161.548319,51.3211524 C162.290326,46.0602774 166.872056,43.3479969 171.204262,43.3479969 C175.538109,43.3479969 179.29411,46.0602774 178.550461,51.195114 C177.726373,57.2465933 170.545977,58.7083112 166.37629,57.0387118 L166.212129,58.081393 C165.964247,59.8361092 167.490943,60.7118304 169.265522,60.7118304 C170.792218,60.7118304 172.484716,60.0865491 173.433566,58.9587511 L176.695443,61.3387486 Z M195.647816,35 C197.711318,35 198.909693,36.5026394 198.620769,38.4652371 C198.372886,40.426198 196.721428,41.9713958 194.657926,41.9713958 C192.760226,41.9713958 191.522453,40.426198 191.768694,38.4652371 C192.057618,36.5026394 193.748475,35 195.647816,35 L195.647816,35 Z M194.410043,65.3883455 L197.381355,43.7228383 L191.643932,43.7228383 L188.67262,65.3883455 L194.410043,65.3883455 Z M177.434167,65.3490609 L180.405479,43.8914351 C181.229566,38.0052789 185.440293,34.8739616 191.300836,35.6269182 L190.476748,41.3444776 C187.710638,40.9270778 186.308704,42.3887957 186.101861,43.8914351 L185.977099,44.8931947 L189.77414,44.8931947 L189.071531,50.1115112 L185.276132,50.1115112 L183.128908,65.3490609 C181.810696,74.0047878 170.632982,74.0047878 170.632982,74.0047878 C170.632982,74.0047878 176.867812,69.7653149 177.434167,65.3490609 L177.434167,65.3490609 Z M199.02953,45.2271146 C201.546116,44.0583951 204.433706,43.3479969 207.034014,43.3479969 C211.865269,43.3479969 216.031672,45.5610345 215.246983,51.2376724 L213.267203,65.3883455 L207.572462,65.3883455 L209.46852,51.5715923 C209.760726,49.6106314 208.314469,48.6923518 206.664652,48.6923518 C205.838923,48.6923518 204.931113,48.9002333 204.187465,49.2767115 L201.959802,65.3883455 L196.222379,65.3883455 L199.02953,45.2271146 Z M221.767453,52.9907517 C222.704811,53.2935712 223.668436,53.4457994 224.655043,53.4490731 C226.140698,53.4490731 227.831555,52.6159103 227.999,51.1541924 C228.204201,49.3601915 226.761227,48.6497933 225.357651,48.6497933 C223.871995,48.6497933 222.220537,49.7350329 222.013694,51.2802308 L221.767453,52.9907517 Z M231.548158,61.3387486 C228.947849,64.5961043 225.728655,65.8073822 222.923145,65.8073822 C218.712419,65.8073822 214.752859,63.1753079 215.453826,58.0830298 L216.402675,51.3211524 C217.144683,46.0619143 221.724771,43.3479969 226.058618,43.3479969 C230.392465,43.3479969 234.148466,46.0619143 233.404817,51.195114 C232.579088,57.2482301 225.398691,58.709948 221.229005,57.0403487 L221.066486,58.0830298 C220.816961,59.837746 222.343657,60.7134673 224.119878,60.7134673 C225.646574,60.7134673 227.339073,60.0865491 228.286281,58.9603879 L231.548158,61.3403855 L231.548158,61.3387486 Z M256.221537,43.7653967 L253.952834,59.9621476 C253.250225,60.3386259 252.344057,60.5039489 251.477288,60.5039489 C249.827471,60.4630274 248.256452,59.7117077 248.504334,58.0846667 L250.528438,43.7653967 C250.528438,43.7653967 244.211528,43.3479969 243.42848,43.3479969 C238.807352,43.3479969 234.764069,45.9784343 234.104143,51.1132709 L232.122721,65.3883455 L237.860143,65.3883455 L239.798883,51.3227892 C240.128847,48.8855015 242.302337,48.2651307 244.342856,48.4550068 L242.893316,58.8343496 C242.231747,63.4683063 245.656143,65.8483038 249.701067,65.8483038 C250.81572,65.8483038 252.600148,65.8794042 253.168145,65.3048656 C253.168145,66.7403937 251.803968,68.8945042 248.793258,68.8945042 C245.782547,68.8945042 240.864287,67.3198429 235.862305,67.3198429 C220.445958,67.3198429 216.374768,75 216.374768,75 C216.374768,75 221.33571,71.580595 233.311245,71.580595 C238.385458,71.580595 245.707033,74.0195196 249.42856,74.0195196 C253.148446,74.0195196 257.982983,71.8523141 259.028688,65.0544257 L262,43.7670336 L256.221537,43.7670336 L256.221537,43.7653967 Z"/>
</svg>
