<svg xmlns="http://www.w3.org/2000/svg" width="310" height="110" viewBox="0 0 310 110">
  <path fill="#F7F7EF" fill-rule="evenodd" d="M304,60.115945 L304,61.844686 L293.187544,61.844686 L293.187544,41.4143715 L295.053759,41.4143715 L295.053759,60.115945 L304,60.115945 Z M277.282904,54.5090108 C279.170024,49.1745827 280.495569,45.3355921 281.258589,42.9910827 L285.144003,54.5090108 L277.282904,54.5090108 Z M279.903587,41.4143715 L272.734242,61.844686 L274.752491,61.844686 L276.710877,56.1765574 L285.687524,56.1765574 L287.613603,61.844686 L289.632802,61.844686 L282.61454,41.4143715 L279.903587,41.4143715 Z M270.385319,58.7218608 L270.385319,60.78239 C269.160496,61.6515413 267.472921,62.086595 265.324492,62.086595 C262.252459,62.086595 259.772407,61.1466877 257.884337,59.2678293 C255.996266,57.3880147 255.052706,54.8570538 255.052706,51.6749465 C255.052706,48.4928392 256.027623,45.9417988 257.974607,44.0218254 C259.92254,42.101852 262.332276,41.1418653 265.204766,41.1418653 C267.192608,41.1418653 268.899188,41.5052069 270.325455,42.2338024 L270.325455,44.2034962 C269.440809,43.7388015 268.657834,43.4108379 267.975582,43.2186493 C267.29238,43.0264607 266.34882,42.9308445 265.143952,42.9308445 C262.814034,42.9308445 260.870851,43.7235029 259.315355,45.3097757 C257.758909,46.8970047 256.981636,48.9929119 256.981636,51.5994097 C256.981636,54.2059074 257.749407,56.3085078 259.285898,57.9043422 C260.82239,59.5001767 262.864395,60.2976158 265.414763,60.2976158 C267.403555,60.2976158 269.059774,59.7726829 270.385319,58.7218608 Z M249.119586,61.8437299 L250.986751,61.8437299 L250.986751,41.4143715 L249.119586,41.4143715 L249.119586,61.8437299 Z M238.84875,59.3883057 C237.783563,59.874036 236.55874,60.115945 235.173332,60.115945 L231.107377,60.115945 L231.107377,43.1421564 L235.023199,43.1421564 C237.432935,43.1421564 239.405574,43.9568064 240.942066,45.5832381 C242.477608,47.2096697 243.245379,49.1745827 243.245379,51.4779771 C243.245379,53.7813715 242.62394,55.7615831 241.378213,57.4186119 C240.755824,58.2476044 239.912987,58.9035316 238.84875,59.3883057 Z M229.240212,41.4143715 L229.240212,61.844686 L235.173332,61.844686 C237.342665,61.844686 239.199378,61.3388763 240.745372,60.3291692 C243.717634,58.428319 245.203764,55.4890769 245.203764,51.5076181 C245.203764,48.49762 244.249752,46.0632314 242.342678,44.2034962 C240.434653,42.3447172 237.99546,41.4143715 235.023199,41.4143715 L229.240212,41.4143715 Z M216.347742,60.115945 L225.474523,60.115945 L225.474523,61.844686 L214.480577,61.844686 L214.480577,41.4143715 L225.293983,41.4143715 L225.293983,43.1421564 L216.347742,43.1421564 L216.347742,50.7799788 L224.239249,50.7799788 L224.239249,52.5087198 L216.347742,52.5087198 L216.347742,60.115945 Z M208.125562,41.4143715 L209.842594,61.844686 L207.974479,61.844686 L206.468393,43.8697957 C205.183708,47.4869567 203.054284,53.3071151 200.082972,61.3293147 L197.884183,61.3293147 L191.859842,44.0820636 C191.679302,47.0528591 191.277363,52.9734145 190.655924,61.844686 L188.787808,61.844686 L190.203624,41.4143715 L192.763493,41.4143715 L195.414583,48.9011204 L198.998781,59.2984265 C200.384189,55.4785591 202.573477,49.5178449 205.564742,41.4143715 L208.125562,41.4143715 Z M166.106261,53.902804 C167.612346,48.7299674 168.425727,45.6989337 168.546404,44.809703 C168.827666,46.2449022 169.641047,49.2759359 170.986547,53.902804 L166.106261,53.902804 Z M165.685317,41.4143715 L158.907458,61.844686 L163.757338,61.844686 L164.991662,57.6614771 L172.100195,57.6614771 L173.335469,61.844686 L178.305075,61.844686 L171.528167,41.4143715 L165.685317,41.4143715 Z M142.732959,41.4143715 L157.311103,41.4143715 L157.311103,45.1730445 L152.371904,45.1730445 L152.371904,61.844686 L147.702565,61.844686 L147.702565,45.1730445 L142.732959,45.1730445 L142.732959,41.4143715 Z M140.323222,42.2940406 L140.323222,46.7803529 C138.817137,45.8500073 137.196076,45.3862687 135.45814,45.3862687 C133.722103,45.3862687 132.300587,45.9561413 131.196441,47.0987549 C130.092295,48.2394562 129.539272,49.7607101 129.539272,51.6596479 C129.539272,53.560498 130.092295,55.0597601 131.196441,56.1603026 C132.300587,57.2627575 133.762012,57.8125507 135.578816,57.8125507 C137.396571,57.8125507 138.977723,57.3277765 140.323222,56.357272 L140.323222,60.9344198 C139.0984,61.7022179 137.331006,62.086595 135.021992,62.086595 C132.049731,62.086595 129.564928,61.1218275 127.566633,59.1913363 C125.568338,57.2627575 124.569666,54.7518759 124.569666,51.6596479 C124.569666,48.568376 125.538882,46.0421958 127.477313,44.0820636 C129.414795,42.1228876 131.939506,41.1418653 135.052399,41.1418653 C137.340508,41.1418653 139.0984,41.5262425 140.323222,42.2940406 Z M116.468163,61.8437299 L121.107096,61.8437299 L121.107096,41.4143715 L116.468163,41.4143715 L116.468163,61.8437299 Z M108.696383,41.4143715 L113.636533,41.4143715 L106.798811,61.844686 L101.678121,61.844686 L94.93162,41.4143715 L99.9316328,41.4143715 L102.371776,49.5694776 C103.254522,52.4781226 103.897815,55.164938 104.298805,57.6308799 C104.619976,55.5301919 105.272771,52.8414642 106.257191,49.5694776 L108.696383,41.4143715 Z M87.7632246,41.4143715 L92.4012068,41.4143715 L92.4012068,61.844686 L87.3109239,61.844686 L82.4619947,53.3874327 C81.1963131,51.2255503 80.2926619,49.3667713 79.7500912,47.8101395 L79.5096877,47.0528591 C79.8109047,48.8705232 79.9619883,50.9826852 79.9619883,53.3874327 L79.9619883,61.844686 L75.3230559,61.844686 L75.3230559,41.4143715 L80.4133388,41.4143715 L85.1425413,49.8716249 C86.507045,52.3174874 87.4810118,54.3875782 88.0644416,56.0847658 C87.8629968,54.5902846 87.7632246,52.5192376 87.7632246,49.8716249 L87.7632246,41.4143715 Z M66.4670849,61.8437299 L71.1060174,61.8437299 L71.1060174,41.4143715 L66.4670849,41.4143715 L66.4670849,61.8437299 Z M47.2690122,55.1620695 L41.3567964,54.2202498 C41.3567964,54.2202498 46.7074372,58.7639319 46.6656279,58.9044877 C46.6247688,59.0469559 43.0738286,66.6130662 43.0738286,66.6130662 L37.499888,68.0425284 C37.499888,68.0425284 37.531245,57.9062545 36.8242877,51.5965412 C35.9595952,43.3802407 32.2775257,37.8469309 27.2746623,36.5408136 C24.1950269,35.7366813 18.6971033,35.522501 18.6971033,35.522501 L23.2780728,33.0498659 L28.8472623,32.3566484 L27.4533021,34.4764597 L32.3573435,33.4275499 L36.6532496,35.1476855 L33.4462859,37.5017564 L37.8362629,37.6021534 L42.5170046,42.3667089 L36.9440143,43.8124259 L43.5242288,45.2973456 L47.2690122,55.1620695 Z M11.9068921,46.521233 C12.1748517,45.0324887 13.3664169,44.2465235 14.090478,43.6431853 C14.3973964,45.9389303 13.5992187,48.184955 13.488044,48.3369848 C13.1668725,48.2633603 11.7529578,47.288075 11.9068921,46.521233 Z M18.2086946,37.6556985 L16.0507643,40.8531044 L16.4916625,35.7835332 L14.2776697,32 L12.8894107,39.8978985 L9.98746489,46.5116714 L10.3656491,48.7481344 L7.92645619,56.1230123 L7,57.7886466 L8.85196217,61.5951277 L12.1748517,61.4995115 L13.3103544,61.8810202 L15.4559319,61.1677233 L15.4977412,58.8834522 L18.8206308,54.268058 C18.8206308,54.268058 22.9920592,50.3277141 22.8590296,50.3181525 C22.5977214,52.9342119 20.9120463,59.4475878 18.8462865,63.0580557 C16.7795765,66.6694797 15.3172011,72.7889168 14.9770254,78 C24.222583,73.4285892 28.8776691,70.8459956 32.5815934,69.6928641 C32.5815934,69.6928641 34.4687134,56.6001372 34.0021596,52.5345362 C33.5365559,48.4689351 32.5207799,40.0269804 26.4128205,38.7705835 C21.2531722,37.7092436 18.2086946,37.6556985 18.2086946,37.6556985 Z"/>
</svg>
