<svg xmlns="http://www.w3.org/2000/svg" width="310" height="110" viewBox="0 0 310 110">
  <path fill="#F7F7EF" fill-rule="evenodd" d="M185.881714,30 L185.881714,39.2170008 L180.934547,30 L179.59504,30 L160.476575,30 L153.175466,30 L133.474201,30 L126.34306,30 L109.207974,30 L107,30 L107,80 L126.34306,80 L126.34306,49.33942 L133.474201,49.33942 L133.474201,80 L153.175466,80 L153.175466,49.33942 L160.476575,49.33942 L160.476575,80 L179.59504,80 L179.59504,69.9411189 L185.881714,79.9548735 L185.881714,80 L205,80 L205,30 L185.881714,30 Z M191.254965,35.415182 L199.627107,35.415182 L199.627107,74.5849985 L198.041155,74.5849985 L191.254965,74.5849985 L188.44843,74.5849985 L174.221789,49.6578327 L174.221789,74.5849985 L165.849468,74.5849985 L165.849468,35.415182 L167.914161,35.415182 L174.221789,35.415182 L177.507064,35.415182 L191.254965,61.2925317 L191.254965,35.415182 Z M126.323358,35.415182 L138.847273,35.415182 L147.802393,35.415182 L160.326487,35.415182 L160.326487,44.4403048 L147.802393,44.4403048 L147.802393,74.5849985 L138.847273,74.5849985 L138.847273,44.4403048 L126.323358,44.4403048 L126.323358,35.415182 Z M112.372893,74.5849985 L120.969988,74.5849985 L120.969988,35.415182 L112.372893,35.415182 L112.372893,74.5849985 Z"/>
</svg>
