<svg xmlns="http://www.w3.org/2000/svg" width="310" height="110" viewBox="0 0 310 110">
  <path fill="#F7F7EF" fill-rule="evenodd" d="M198.154833,35.1779407 C197.860256,34.5906914 197.338511,34.1778659 196.592295,33.9414846 C195.84473,33.7064502 194.705519,33.5879228 193.172641,33.5879228 C190.303718,33.5879228 188.750617,34.6876684 188.51536,36.887833 C188.510641,36.8810985 188.5039,36.8736905 188.499181,36.866956 L188.499181,48.9399132 C188.499856,48.9836875 188.511989,49.024768 188.511989,49.0685424 C188.511989,49.1129901 188.499856,49.1533972 188.499181,49.1971715 L188.499181,49.396513 L188.478959,49.396513 C188.306392,52.0755013 186.099424,54.2015864 183.374756,54.2015864 C181.96591,54.2015864 180.691882,53.6331937 179.763661,52.7159533 L172.223301,60.2485034 C175.023467,63.0803652 178.044734,64.5121221 181.292495,64.5121221 C184.691926,64.5121221 187.119321,63.4716402 188.574005,61.390003 C188.691971,62.4116283 189.113951,63.1867704 189.841293,63.7167764 C190.568635,64.2481293 192.003096,64.5121221 194.145351,64.5121221 C196.286932,64.5121221 197.633088,64.0016462 198.183145,62.9813679 C198.458847,62.3920982 198.626021,61.8715205 198.685341,61.4189614 C198.743987,60.9684226 198.773647,60.2916043 198.773647,59.3885064 L198.773647,38.7708022 C198.773647,37.8690512 198.743987,37.190886 198.685341,36.7403472 C198.626021,36.289135 198.448736,35.7678839 198.154833,35.1779407 L198.154833,35.1779407 Z M178.982392,51.6950015 C178.519967,50.9245735 178.237524,50.0329243 178.237524,49.0685424 C178.237524,46.2339868 180.537516,43.9361718 183.374756,43.9361718 C184.915724,43.9361718 186.282103,44.6284795 187.223805,45.701287 L187.223805,35.4924424 C186.770817,35.1341664 186.091335,34.7550135 185.154352,34.3543101 C184.053564,33.8828943 182.835485,33.6478599 181.499441,33.6478599 C178.000244,33.6478599 174.786862,35.1893894 171.859293,38.2711015 C168.930376,41.353487 167.467603,44.9470218 167.467603,49.0496857 C167.467603,52.9179886 168.775336,56.3344059 171.358445,59.311733 L178.982392,51.6950015 Z M243.227124,33.8243041 C242.401364,33.4316821 241.614028,33.2350344 240.868486,33.2350344 C238.981711,33.2350344 237.566798,34.4923676 236.623073,37.00434 L233.035571,46.84346 C233.035571,46.8427866 233.034897,46.8421131 233.034897,46.8421131 L233.035571,46.84346 L224.978859,52.6701586 C226.707223,57.2711763 227.725098,59.9595929 228.01563,60.6835528 L228.488166,61.6849746 C228.763195,62.3920982 229.322015,63.0884466 230.167322,63.7753667 C231.013304,64.4629602 231.887598,64.8064202 232.791551,64.8064202 C233.695504,64.8064202 234.443069,64.6683628 235.031549,64.3949416 C236.408039,63.687818 237.390186,62.4715654 237.97934,60.7421431 L244.464751,44.9571236 C244.896842,43.857378 245.42735,42.570413 246.057624,41.0989225 C246.6852,39.6254116 247,38.5573182 247,37.8879078 C247,36.2776863 245.74215,34.9247231 243.227124,33.8243041 L243.227124,33.8243041 Z M215.589472,45.5908411 C213.727638,40.5109997 212.479225,37.2211913 211.86176,35.7678839 C211.743794,35.4143221 211.586732,35.070862 211.389898,34.7375037 C211.193064,34.4041455 210.849278,34.0707872 210.358541,33.736082 C209.86713,33.4027237 209.228094,33.2350344 208.442106,33.2350344 C207.655444,33.2350344 206.634199,33.4909458 205.376349,34.0007483 C203.136351,34.9045196 202.015341,36.1409758 202.015341,37.7114636 C202.015341,38.064352 202.212175,38.8307393 202.605843,40.0086052 L207.343341,51.5441485 L215.589472,45.5908411 Z M153.674393,56.6226429 C153.098047,56.7755163 152.337,56.8549835 151.372379,56.8549835 C150.034312,56.8549835 148.541205,56.3754864 146.891709,55.4124514 C145.240191,54.4494163 143.932458,53.9692457 142.969859,53.9692457 C142.006585,53.9692457 141.308903,54.302604 140.876812,54.9693206 C139.383705,57.0516312 138.636814,58.6019156 138.636814,59.622194 C138.636814,60.6451661 139.010259,61.390003 139.75715,61.8620922 C143.254998,64.0615834 146.899798,65.159982 150.693571,65.159982 C151.739757,65.159982 152.725275,65.1034122 153.674393,65.0104759 L153.674393,56.6226429 Z M224.528567,51.4256211 L232.546857,45.6150853 C231.965792,44.0856779 230.968814,41.3312631 229.548508,37.3579018 L229.077994,36.3571535 C228.763195,35.7294972 228.182804,35.1011673 227.33817,34.4714906 C226.492863,33.8445076 225.481729,33.5293325 224.302747,33.5293325 C223.123092,33.5293325 221.96231,34.0990721 220.8231,35.2378779 C220.194175,35.8271476 219.762084,36.5140676 219.526827,37.2993116 L216.047179,46.8414397 L207.840819,52.7556869 L211.508537,61.6849746 C211.782217,62.3920982 212.333622,63.0884466 213.159381,63.7753667 C213.983792,64.4629602 215.006385,64.8064202 216.224464,64.8064202 C217.441869,64.8064202 218.524456,64.3350045 219.466833,63.3928465 C219.820729,63.0386112 220.135529,62.627806 220.410557,62.1557169 C220.684912,61.6849746 220.85276,61.361718 220.911405,61.1852739 C220.971399,61.0081562 221.108239,60.653921 221.324622,60.123915 C221.540331,59.593909 222.031741,58.2584556 222.798181,56.1189015 C223.565294,53.978674 224.144337,52.4364711 224.538005,51.4949865 C224.540701,51.501721 224.542723,51.5084556 224.54542,51.5158635 L224.528567,51.4256211 Z M160.509656,46.9599671 C158.072824,45.743041 155.557798,44.9968572 152.963229,44.7200688 C150.386186,44.3799761 149.065646,43.6526489 148.973296,42.5454954 L142.26611,35.8460042 C140.558642,37.3801257 139.698504,39.5297815 139.698504,42.3064202 C139.698504,44.3867106 140.070602,46.183478 140.818166,47.6960491 C141.564383,49.2079467 142.508108,50.3164472 143.648666,51.0228973 C146.08415,52.5159383 148.541205,53.4392397 151.018482,53.7928016 C153.6508,54.1456899 154.968644,54.6958994 154.968644,55.4407363 C154.968644,55.4797965 154.953814,55.513469 154.949769,55.5505088 L154.949769,64.8353786 C156.902605,64.5424274 158.657259,64.0602365 160.156433,63.3349297 C161.532249,62.627806 162.603376,61.5583658 163.369142,60.123915 C164.136255,58.692158 164.519812,56.9526339 164.519812,54.9107303 C164.519812,52.8695001 164.136255,51.1710566 163.369142,49.816073 C162.603376,48.4617629 161.64954,47.5101766 160.509656,46.9599671 L160.509656,46.9599671 Z M100.314851,48.3688267 L100.314851,38.8906764 C100.314851,38.1438192 100.295303,37.5740796 100.25688,37.1814576 C100.216434,36.0439988 99.8632118,35.1994912 99.1958636,34.6479348 C98.4085276,33.9812182 97.0724831,33.6478599 95.1857078,33.6478599 C92.6706816,33.6478599 91.1378031,34.1576624 90.5870723,35.1779407 C90.312044,35.7678839 90.1448699,36.289135 90.0862241,36.7403472 C90.0282525,37.190886 89.9979185,37.8690512 89.9979185,38.7708022 L89.9979185,48.3688267 L100.314851,48.3688267 Z M149.727601,41.498279 C150.304622,41.2538162 151.199138,41.1272074 152.432721,41.1272074 C153.925828,41.1272074 155.311755,41.422179 156.589828,42.0107752 C157.865879,42.6000449 158.74152,42.8950165 159.213383,42.8950165 C160.116662,42.8950165 161.001741,42.2087698 161.865923,40.8335828 C162.730105,39.460416 163.163544,38.3007333 163.163544,37.3579018 C163.163544,36.4157438 162.474625,35.6311733 161.100158,35.0014966 C158.151018,33.66739 155.282095,33 152.491366,33 C148.476492,33 145.418824,33.6963484 143.294095,35.070862 L149.727601,41.498279 Z M85.2806433,53.4648309 L85.2806433,38.5371146 C85.2806433,37.6340168 85.2523315,36.9558515 85.1923376,36.5046393 C85.1336919,36.0541006 84.9570805,35.5429512 84.6618295,34.9725382 C84.3665785,34.4041455 83.8664044,34.0007483 83.1586109,33.7650404 C82.4514915,33.5293325 81.4875442,33.4114786 80.2701393,33.4114786 C79.0507122,33.4114786 78.0780017,33.5293325 77.3506596,33.7650404 C76.6233176,34.0007483 76.0732609,34.4432056 75.7004896,35.0910655 C75.3263702,35.738252 75.1403216,36.750449 75.1403216,38.1242891 L75.1403216,53.4648309 L85.2806433,53.4648309 Z M117.588383,63.687818 C117.996207,63.687818 118.389875,63.6730021 118.770062,63.6420233 L118.770062,53.6466627 C116.275258,53.3301407 114.339274,51.2256061 114.339274,48.646962 C114.339274,46.0683179 116.275258,43.9637833 118.770062,43.6479348 L118.770062,33.6296767 C118.480203,33.6047591 118.185626,33.5879228 117.883634,33.5879228 C114.463981,33.5879228 111.320029,35.1011673 108.450432,38.1242891 C105.581509,41.1487579 104.147048,44.6621521 104.147048,48.6664921 C104.147048,52.6728524 105.571398,56.1774918 108.420772,59.181757 C111.270147,62.1853487 114.325792,63.687818 117.588383,63.687818 L117.588383,63.687818 Z M75.1403216,54.7390003 L75.1403216,62.3920982 C75.1403216,64.4346752 74.590265,65.8469021 73.4894775,66.6314726 C72.3893642,67.4180635 71.1220768,67.8113589 69.6869412,67.8113589 C68.2524797,67.8113589 67.1132692,68.1049835 66.2679615,68.6942532 C65.4219797,69.2828494 65,70.7348099 65,73.0535019 C65,75.3701736 65.5109595,76.802604 66.5328785,77.353487 C67.0836093,77.6269081 67.5743461,77.793924 68.0064372,77.8538611 C68.4392024,77.9124514 69.1072246,77.9420832 70.011178,77.9420832 C73.8231516,77.9420832 77.3223479,76.5668961 80.5053964,73.8185424 C83.689119,71.0695151 85.2806433,67.3978599 85.2806433,62.8049237 L85.2806433,54.7390003 L75.1403216,54.7390003 Z M134.185804,35.0311284 C133.890553,34.4627357 133.389705,34.0593385 132.682586,33.8243041 C131.975466,33.5879228 130.854456,33.4714157 129.321578,33.4714157 C127.788699,33.4714157 126.6778,33.7562855 125.990229,34.3246782 C125.301984,34.8944178 124.899553,35.7294972 124.781588,36.8278958 C124.546331,36.474334 124.222094,36.0911404 123.808877,35.6796618 C123.397009,35.2675097 122.639333,34.8162975 121.539893,34.3246782 C121.065335,34.1132146 120.564487,33.9563005 120.045438,33.8357528 L120.045438,43.6479348 C122.540242,43.9644567 124.475551,46.0689913 124.475551,48.646962 C124.475551,51.2256061 122.540242,53.3294672 120.045438,53.6459892 L120.045438,63.4642323 C122.07175,63.075651 123.634288,62.1725531 124.722942,60.7421431 L124.722942,62.5086052 C124.722942,64.1585603 124.25108,65.5714606 123.308029,66.7513469 C122.364304,67.9278659 121.146225,68.517809 119.65177,68.517809 C117.450195,68.517809 115.408379,67.7911553 113.521604,66.3385214 C112.931102,65.8664322 112.360823,65.6313978 111.812114,65.6313978 C111.260035,65.6313978 110.77941,65.7883119 110.367542,66.1014666 C109.953651,66.4166417 109.37326,66.9863813 108.627718,67.8113589 C107.448062,68.9878779 106.858908,70.3442083 106.858908,71.8742891 C106.858908,73.0535019 108.215175,74.367405 110.926361,75.8207124 C113.638896,77.2740198 116.487596,78 119.475159,78 C123.405098,78 126.943391,76.6167315 130.087343,73.8475007 C133.231968,71.0796169 134.804618,67.4375935 134.804618,62.9214307 L134.804618,38.5371146 C134.804618,37.6340168 134.774958,36.9673002 134.716312,36.5342712 C134.657666,36.1012421 134.481055,35.600868 134.185804,35.0311284 L134.185804,35.0311284 Z M100.314851,49.6429961 L100.314851,59.5056869 C100.314851,60.4087848 100.28654,61.08695 100.22722,61.5381622 C100.168574,61.988701 99.9811774,62.5086052 99.6677259,63.0985483 C99.1560924,64.1201736 97.6427624,64.6299761 95.1277362,64.6299761 C92.6518071,64.6299761 91.1378031,64.0999701 90.5870723,63.0386112 C90.312044,62.450015 90.1448699,61.9415594 90.0862241,61.5085304 C90.0282525,61.0768482 89.9979185,60.3885813 89.9979185,59.4457498 L89.9979185,49.6429961 L100.314851,49.6429961 Z"/>
</svg>
