<svg xmlns="http://www.w3.org/2000/svg" width="310" height="110" viewBox="0 0 310 110">
  <path fill="#F7F7EF" fill-rule="evenodd" d="M183.456225,43.1691332 C183.815565,43.1691332 184.102262,42.8720262 184.102262,42.5055192 C184.102262,42.1429512 183.815565,41.8497831 183.456225,41.8497831 C183.093567,41.8497831 182.803735,42.1429512 182.803735,42.5055192 C182.803735,42.8720262 183.093567,43.1691332 183.456225,43.1691332 Z M184.712716,35.4818653 C185.61761,34.1167487 185.566355,33.28695 185.566355,33.28695 C185.554186,33.1592165 185.501272,33.07875 185.376637,33.0629943 C185.242783,33.0472387 185.152626,33.1700954 185.117042,33.3186489 L185.106164,33.3428451 C184.652057,34.9735572 183.133206,36.2887808 181.618596,37.3102736 L182.217434,37.9802648 C182.746395,37.5852476 183.896319,36.7066813 184.712716,35.4818653 Z M182.437573,40.6078985 C182.437573,40.2436423 182.151613,39.945785 181.793564,39.945785 C181.434225,39.945785 181.144393,40.2436423 181.144393,40.6078985 C181.144393,40.9742178 181.434225,41.2658854 181.793564,41.2658854 C182.151613,41.2658854 182.437573,40.9742178 182.437573,40.6078985 Z M180.777494,38.7099026 C180.777494,38.3435832 180.485081,38.0502275 180.130351,38.0502275 C179.770273,38.0502275 179.477492,38.3435832 179.477492,38.7099026 C179.477492,39.0732209 179.770273,39.3686397 180.130351,39.3686397 C180.485081,39.3686397 180.777494,39.0732209 180.777494,38.7099026 Z M186.624831,35.3188691 C185.679559,37.1393996 183.903141,38.4294891 183.187965,39.0126366 L183.85668,39.7732229 C185.010107,38.7871804 186.342743,37.4978411 187.144389,36.0492571 C187.980144,34.5479665 188.022365,32.0748885 187.749311,31.5397584 C187.738618,31.5183757 187.681278,31.3923303 187.517004,31.3923303 C187.281561,31.3923303 187.315854,31.666554 187.321939,31.7201983 C187.363607,32.0126161 187.292439,34.0293423 186.624831,35.3188691 Z M188.791563,36.1107792 C187.648829,38.8336971 185.246286,40.4886055 184.794023,40.8070952 L185.459419,41.5432978 C190.860578,37.7705643 190.49036,31.7894108 189.806158,30.4151034 C189.766703,30.312504 189.686317,30.2265981 189.577538,30.236164 C189.31444,30.2622359 189.385607,30.5357093 189.399619,30.5914169 C189.477793,30.8712677 190.04326,33.1277051 188.791563,36.1107792 Z M168.36451,42.3802241 C165.833644,41.7333037 162.749481,41.234374 159.879557,40.9971011 L159.879557,48.6742403 C160.980991,48.7198192 162.110265,48.7875311 163.235852,48.870436 C163.411927,48.412396 163.718721,47.9129037 164.254688,47.6084816 C164.65754,47.3800243 165.092287,47.1641341 165.758421,47.6761935 C166.355784,48.1372345 167.324102,48.1687458 168.36451,47.9294096 L168.36451,42.3802241 Z M164.190527,49.2305656 C163.573621,49.4070667 163.26867,49.6569066 163.117486,49.8191526 C163.117486,49.9429471 163.137582,50.0723687 163.174641,50.2085428 C163.201375,50.2850703 163.250602,50.370226 163.321954,50.4576325 C163.481435,50.2890092 164.101291,49.6490288 164.623431,49.4173829 C164.623431,49.4173829 164.718013,49.0799489 164.190527,49.2305656 Z M159.863332,55.7506007 L159.863332,65.1709927 C161.830205,64.1526885 164.195874,62.9524438 166.60026,61.7805219 C167.692845,61.2485804 168.377784,60.2019535 168.377784,58.9613818 L168.377784,56.4607314 C165.721362,56.1148569 162.864897,55.8728948 159.863332,55.7506007 Z M159.142071,39.2317154 C159.119947,39.2467208 159.045092,39.2568495 158.994759,39.2364046 C158.876208,39.185949 158.653672,39.1324922 158.49419,39.3065549 C158.334525,39.4823057 158.298941,39.7115132 158.292857,39.7811008 C158.831959,39.8062348 159.364239,39.8409348 159.8932,39.8820121 C159.825167,39.7424618 159.757134,39.6186673 159.822217,39.4616732 C160.071487,38.8408247 162.16613,37.6435811 162.864897,37.7870703 C162.864897,37.7870703 162.152486,38.2891886 162.144558,38.5752291 C162.133681,38.9181025 162.583731,39.122176 163.071024,39.1670046 C163.071024,39.1670046 163.250602,39.4491062 162.77898,39.6366738 C162.49302,39.7494018 162.305883,39.4823057 162.088694,39.5714002 C161.937141,39.6342354 161.791303,39.9283413 161.737282,40.056825 C162.287815,40.1198477 162.83466,40.189998 163.369153,40.2697142 C163.348319,40.1616753 163.354403,39.9305921 163.42557,39.7683462 C163.531215,39.5147549 163.872855,39.2757938 163.872855,39.2757938 C163.872855,39.2757938 163.596298,39.1591268 163.607176,38.9181025 C163.616579,38.673702 163.797632,38.5412793 163.797632,38.5412793 C163.797632,38.5412793 163.932407,38.9346085 164.43611,39.1561257 C164.962859,39.3877716 165.284218,39.3877716 165.284218,39.3877716 C165.284218,39.3877716 165.436877,39.9234645 165.188345,39.9984915 C164.961199,40.0695796 164.876204,39.8788234 164.705476,39.9118353 C164.440719,39.962291 164.334521,40.2035028 164.291009,40.4154542 C164.724098,40.487105 165.147967,40.5604439 165.567228,40.6448493 L166.00935,40.7125611 C166.00935,40.7125611 165.872178,40.4807277 165.872178,39.9787969 C165.872178,39.6366738 165.844522,39.0480868 165.844522,39.0480868 C165.844522,39.0480868 165.029601,38.784742 164.909944,38.3672167 C164.825686,38.0762994 164.880813,37.8831049 164.908469,37.8163308 C165.594884,38.0455383 166.16496,38.0581054 166.45811,37.6137579 C166.945957,36.864238 166.065952,36.2604581 166.075908,35.8971398 C166.083836,35.6709333 166.423817,35.5810885 166.660734,35.6424231 C166.693552,35.6467371 166.724527,35.6654939 166.724527,35.7056333 C166.722683,35.7725949 166.701111,35.8397441 166.675484,35.8963895 C166.659444,35.9318398 166.681753,35.9618506 166.730611,35.9445944 C167.051417,35.8269895 167.677358,35.7483987 167.698192,35.743522 C167.723819,35.7405209 167.739306,35.7174501 167.717735,35.6915658 C167.695795,35.6624928 167.324102,35.1808194 166.812103,35.020074 C166.761585,35.0018799 166.753657,35.0230751 166.758451,35.0474589 C166.769145,35.0981021 166.804175,35.2226469 166.797353,35.2579096 C166.791085,35.2849194 166.780391,35.3068648 166.729136,35.3036761 C166.506047,35.2706642 166.101536,35.2635367 165.931177,35.3982101 C165.072744,36.07833 166.481156,36.7672656 166.093977,37.3747968 C166.013406,37.4993417 165.607421,37.6327022 164.939443,37.3157131 C164.759866,37.2314952 164.308893,36.9342007 164.003575,36.8255991 C163.665069,36.6988034 163.363069,36.683798 163.162473,36.6988034 C163.11048,36.7066813 163.09573,36.6742321 163.154545,36.6466597 C163.428889,36.5380581 163.870458,36.3180413 164.096498,36.0042409 C164.49013,35.4653593 164.983877,34.8994681 166.158875,34.7946178 C166.561727,34.7567292 164.193477,33.8188915 162.768102,34.4699384 C162.203557,34.7244676 162.17793,35.1011032 162.18807,35.6945669 C162.198948,36.2542684 161.896763,36.5600035 161.637906,36.5845748 C161.269163,36.6166489 161.15135,36.333797 161.213299,35.8579382 C161.216618,35.7891009 161.281701,35.7174501 161.316362,35.6827501 C161.467547,35.5441377 161.799231,35.1577486 161.681418,34.5344616 C161.681418,34.5344616 161.876667,34.2838714 161.917597,34.1428206 C161.961662,33.9970807 161.961662,33.8685969 161.820802,33.9338704 C161.681418,33.9970807 161.581304,33.9899531 161.379233,33.9773861 C161.17624,33.9663196 160.542372,33.8961693 160.291442,33.9552531 C160.138783,33.9907034 159.993129,34.0443477 160.025763,34.2838714 C160.025763,34.2838714 159.808205,34.3949114 159.64688,34.4005384 C159.487399,34.4059779 159.247163,34.2713044 159.087682,34.3707152 C158.963784,34.4446168 159.065926,34.9639913 159.30229,34.9088464 C159.541788,34.8537016 160.135095,34.57854 160.228018,34.9184124 C160.29218,35.1626253 159.581981,35.1491205 159.422131,35.1626253 C159.2597,35.1744421 159.119947,35.3818918 159.484449,35.7829112 C159.484449,35.7829112 159.722657,35.3068648 160.248299,35.3359377 C160.443364,35.3477545 160.514716,35.528382 160.430089,35.6624928 C160.283883,35.9136457 159.905737,36.2124408 159.853192,36.6190872 C159.853192,36.6190872 159.484449,36.7027424 159.087682,36.5087975 C158.791581,36.3604316 158.559274,36.2777143 158.535858,36.0121187 C158.527009,35.8397441 158.677087,35.5968442 158.655515,35.3691372 C158.638184,35.1656264 158.439063,35.0845972 158.003025,35.1823199 L158.003025,37.0966342 C158.003025,37.0966342 158.399792,36.789211 158.677087,36.9342007 C159.000843,37.0966342 159.368111,37.7137314 159.368111,37.7137314 C159.368111,37.7137314 159.606503,37.5008422 159.775387,37.7137314 C159.913297,37.8831049 159.857432,38.7099026 159.142071,39.2317154 Z M158.010953,59.0401602 C158.010953,58.971698 157.995466,58.9126143 157.967442,58.8557813 C157.242493,59.0260926 156.441216,59.1181883 155.593845,59.1181883 C154.748502,59.1181883 153.940219,59.0260926 153.217852,58.8557813 C153.192962,58.9126143 153.17729,58.971698 153.17729,59.0401602 L153.17729,59.7960574 C153.17729,60.0372692 153.365533,60.2216481 153.596919,60.2216481 L157.589296,60.2216481 C157.824001,60.2216481 158.010953,60.0372692 158.010953,59.7960574 L158.010953,59.0401602 Z M156.528055,63.2141006 C156.528055,61.8782446 156.111375,60.797668 155.593845,60.797668 C155.077052,60.797668 154.656132,61.8782446 154.656132,63.2141006 C154.656132,64.5477057 155.077052,65.6320337 155.593845,65.6320337 C156.111375,65.6320337 156.528055,64.5477057 156.528055,63.2141006 Z M149.810301,34.6299335 L150.842596,34.5644724 C151.257431,34.9026567 151.797824,34.7978065 151.797824,34.7978065 C152.080096,34.777174 152.489585,34.436739 152.895571,34.0473488 C152.895571,34.0473488 149.987482,34.2034049 149.784304,34.2230995 C149.240225,34.2776817 148.609675,34.6723238 148.713476,35.2849194 C148.921447,36.5380581 150.904545,35.3715756 151.741959,35.6709333 C151.874522,35.7204512 152.201413,36.157296 150.805353,36.32817 C149.60362,36.3094132 149.363016,36.4219538 148.733941,36.6466597 C147.539399,37.0825666 147.546405,36.0445679 147.564105,35.7410836 C147.597476,35.1209853 147.408311,34.7134011 147.024634,34.5723503 C146.574768,34.4012887 145.641112,34.7102124 145.541183,34.8182513 C145.438856,34.928541 145.541183,35.1114194 145.541183,35.1114194 C145.541183,35.1114194 145.060342,35.1744421 145.032502,35.4353485 C145.007428,35.6624928 145.227751,35.8206122 145.227751,35.8206122 C145.227751,35.8206122 145.278453,35.5598934 145.73551,35.6084734 C146.138361,35.6529269 146.017045,36.2218192 145.757634,36.2572695 C145.422816,36.3015354 145.271447,36.1122798 145.271447,36.1122798 C145.091316,36.5686316 145.495643,36.7987769 145.495643,36.7987769 C145.893885,36.3118516 146.180582,36.6988034 146.071066,36.8436056 C145.95989,36.9816553 145.859039,37.4276909 145.859039,37.4276909 C144.509994,37.3646682 144.35844,36.8436056 144.326729,36.7642645 C144.290776,36.6869867 144.476622,36.5245532 144.268652,36.2060635 C144.053675,35.8828847 143.734159,36.03669 143.734159,36.03669 L143.734159,37.4033071 C144.663022,37.5531736 145.422816,38.608241 145.422816,38.608241 C146.029951,38.3056945 146.111627,38.4797572 146.138361,38.7416015 C146.154955,38.9126631 145.768881,39.9701688 145.565888,40.0750191 C145.285644,40.2168201 145.300947,40.0086202 144.993784,40.0459461 C144.62412,40.0907748 144.627991,40.5700098 144.664497,40.8393568 C145.174652,40.7283168 145.694948,40.6259049 146.227413,40.5257439 C146.380441,40.1931866 146.714337,39.5792781 147.251595,39.0355198 C147.709758,38.5690393 148.811746,37.8320865 148.811746,37.8320865 C148.601562,38.2008443 148.803265,38.8130647 149.244096,38.859769 C149.435474,38.8760874 149.797948,38.9567414 149.797948,38.9567414 C149.536141,39.2403435 149.427915,39.4491062 149.274333,39.5421397 C149.130524,39.6263575 148.937302,39.4491062 148.937302,39.4491062 C148.565794,39.6462397 148.535557,39.9536629 148.54072,40.1719915 C148.991139,40.1134704 149.443217,40.0553245 149.904146,40.0086202 C150.008684,39.3821446 150.406558,38.970809 150.406558,38.970809 C150.406558,38.970809 150.069158,38.5752291 150.043162,38.3773453 C150.008684,38.1031216 150.297594,37.9896432 150.297594,37.9896432 C150.45726,38.3340172 151.040242,38.4467453 151.271812,38.4467453 C151.461162,38.4467453 151.643689,38.4760058 151.643689,38.4760058 C151.847051,38.6714512 151.896094,39.2521603 151.754865,39.3286879 C151.643689,39.39021 151.426315,39.2757938 151.426315,39.2757938 C151.160636,39.4089668 151.137037,39.7085121 151.148652,39.8945791 C151.572338,39.8630678 152.000632,39.833057 152.427636,39.8062348 C152.489585,39.6524294 152.572183,39.4980613 152.572183,39.4980613 C152.583799,39.0355198 152.277005,38.0691719 152.277005,38.0691719 C151.678535,38.1203778 151.004474,37.4473855 150.944184,37.2590677 C150.914685,37.173912 150.899567,36.9634612 150.888689,36.7642645 C151.491399,36.7027424 151.779571,36.5600035 152.027182,36.4086365 C152.386337,36.1957473 152.437777,35.4488534 151.87065,35.2807929 C151.15529,35.0688416 150.291326,35.4179047 149.571724,35.4661096 C148.831473,35.5180658 149.116327,34.6543173 149.810301,34.6299335 Z M151.298915,55.7506007 C148.300115,55.8728948 145.438856,56.1148569 142.783541,56.4607314 L142.783541,58.9613818 C142.783541,60.2019535 143.472167,61.2485804 144.563093,61.7805219 C146.936505,62.938939 149.314526,64.1472491 151.298915,65.1709927 L151.298915,55.7506007 Z M145.401613,53.0875169 C145.713385,53.1679833 145.995842,53.101772 146.182057,52.7937861 C146.526463,52.2239559 146.387263,51.0722913 146.232206,50.3092665 C146.033085,50.8952275 145.848898,51.9139068 145.733297,52.3584419 C145.673561,52.5855861 145.537126,52.8551207 145.401613,53.0875169 Z M144.64016,44.7043734 C144.750783,45.1558485 145.274582,47.6810702 146.239028,48.8507414 C146.279037,48.901197 146.316095,48.9492143 146.350204,49.0019208 C147.942988,48.8569311 149.585368,48.7443906 151.280293,48.6742403 L151.280293,40.9971011 C148.413688,41.234374 145.67817,41.695415 143.145277,42.3447738 L143.145277,43.5356401 C143.291299,43.5159455 143.429209,43.5024407 143.543519,43.4994396 C144.322488,43.4598628 144.528984,44.2527108 144.64016,44.7043734 Z M154.613911,58.2561279 L156.571566,58.2561279 L156.256844,42.4818857 C156.256844,41.7229875 155.990428,41.0680016 155.593845,40.7542011 C155.208693,41.0680016 154.944489,41.7229875 154.944489,42.4818857 L154.613911,58.2561279 Z M135.26709,36.905878 C135.26709,36.5380581 134.977811,36.2400132 134.620684,36.2400132 C134.258948,36.2400132 133.970407,36.5380581 133.970407,36.905878 C133.970407,37.268446 134.258948,37.5648028 134.620684,37.5648028 C134.977811,37.5648028 135.26709,37.268446 135.26709,36.905878 Z M133.575299,38.8248815 C133.575299,38.4615631 133.281595,38.1668945 132.923362,38.1668945 C132.565497,38.1668945 132.27419,38.4615631 132.27419,38.8248815 C132.27419,39.18895 132.565497,39.4854943 132.923362,39.4854943 C133.281595,39.4854943 133.575299,39.18895 133.575299,38.8248815 Z M131.900838,40.7253157 C131.900838,40.363498 131.611744,40.0671412 131.253511,40.0671412 C130.893986,40.0671412 130.606736,40.363498 130.606736,40.7253157 C130.606736,41.0876962 130.893986,41.3887421 131.253511,41.3887421 C131.611744,41.3887421 131.900838,41.0876962 131.900838,40.7253157 Z M133.699934,28.8023978 C133.699934,28.8023978 133.998247,28.8410367 134.35648,28.9687702 C134.575698,29.0467983 134.779428,29.1861609 134.891341,29.2799447 C134.954212,29.3281496 134.96509,29.3178333 134.939831,29.2508717 C134.904247,29.1595263 134.873273,29.0241026 134.902957,28.8939307 C135.022429,28.7984588 135.083088,28.6551572 135.046766,28.5330508 C134.988321,28.3573 134.744582,28.3177232 134.539008,28.3501724 C134.105182,28.4218232 133.699934,28.8023978 133.699934,28.8023978 Z M180.294625,29.0965036 C180.294625,29.0965036 180.066927,28.8702972 179.372031,28.7873923 C178.822052,28.7189302 178.493317,28.6268345 178.493317,28.6268345 C178.493317,28.6268345 178.329043,28.8269691 178.483177,29.0618037 C178.619059,29.2619382 178.707188,29.3007647 178.707188,29.3007647 C178.707188,29.3007647 178.608918,29.3699771 178.426759,29.5472284 C178.132503,29.8332689 178.174355,29.9966403 178.174355,29.9966403 C178.174355,29.9966403 178.629752,29.6631452 179.407615,29.355722 C179.852319,29.1760323 180.294625,29.0965036 180.294625,29.0965036 Z M186.640318,57.996722 C186.169249,57.6326534 186.018065,57.5223637 186.018065,57.5223637 C184.815595,58.8779143 182.949573,61.852923 185.696337,64.6287349 C185.696337,64.6287349 186.319327,68.6490575 186.080567,71.7966283 C186.035949,72.383152 185.829637,72.4791866 185.403739,72.4791866 L180.382017,72.4791866 C180.382017,72.4791866 180.788925,71.5767991 181.271425,70.5633717 C181.469993,70.1520361 182.104414,69.6403519 183.383583,69.9997313 C183.383583,69.9997313 184.209197,68.9161536 183.961034,67.7772436 C183.719507,66.6779102 183.308912,65.1332916 182.458407,64.5073787 C181.801492,64.0290815 178.566513,62.366858 178.622193,58.8409635 C178.671605,55.7584786 182.08819,54.9720079 182.08819,54.9720079 C180.726976,52.4586029 176.366225,52.4514754 175.865657,49.8714839 C175.847405,49.839785 177.290295,49.4252607 177.895586,48.4409063 C178.250316,47.869388 178.378823,47.335946 178.476355,46.9994498 C178.508067,46.8780936 178.44409,46.8567109 178.389701,46.9615612 C178.199061,47.2894292 177.776666,47.7756043 177.344684,48.1529901 C176.62582,48.7867808 175.243035,48.9627192 173.750181,49.2337543 C168.348285,50.218859 167.978067,50.6821508 166.886958,50.9329286 C165.42139,51.2679242 164.299675,50.995201 163.696781,50.7404843 C163.639626,50.7185389 163.619345,50.7712454 163.66765,50.8185124 C164.27331,51.4189161 165.752337,51.7090831 166.708302,51.6224269 C167.869288,51.5192647 168.550909,50.8123227 169.74582,51.0109567 L169.74582,58.9613818 C169.74582,60.7669069 168.723849,62.284891 167.190802,63.0351611 C161.402279,65.8582401 155.824678,68.8649477 155.583151,68.9934315 C155.583151,68.9934315 149.759599,65.8582401 143.971998,63.0351611 C142.435263,62.284891 141.417718,60.7669069 141.417718,58.9613818 L141.417718,47.6739427 C141.732624,47.0907952 142.175115,46.5320315 142.666833,46.6383823 C143.02562,46.7188488 143.05512,47.0592838 143.091441,47.5542746 C143.129421,48.0500156 142.835165,49.5921958 143.205013,49.6844791 C143.562509,49.7718855 143.638102,49.9121861 143.594221,50.0943141 C143.537251,50.3126427 143.205013,50.7601789 143.349561,51.1330632 C143.485073,51.468809 143.872806,51.9943733 144.332075,52.4216521 C144.023438,51.7225879 143.769005,50.938368 143.987854,50.6063735 C144.101242,50.4364373 144.270127,50.253559 144.37909,49.9697693 C144.531381,49.5921958 144.312348,49.4464559 144.008319,49.373117 C143.829295,49.3322272 143.825976,48.8143533 143.840173,48.4677285 C143.892534,47.2397238 143.362651,46.114131 143.254978,45.8943019 C143.145277,45.6673452 142.801793,45.5926933 142.578335,45.7153624 C139.137966,47.6197356 138.129639,48.0365107 136.609682,45.8984284 C136.589954,45.8706684 136.546074,45.8881121 136.546074,45.9290019 C136.549946,46.8407677 137.202989,47.8144307 137.202989,47.8144307 C137.202989,47.8144307 136.92846,48.7314484 136.083671,49.4338888 C135.241094,50.1374547 134.484249,50.6073113 132.127799,51.356081 C130.837569,51.7621647 129.742034,52.697564 129.742034,52.697564 C131.078727,53.9394486 131.229542,56.0563358 130.966813,57.2993459 C130.596596,59.0741099 128.925823,60.8119231 128.109426,63.8713372 C127.631905,65.6667337 128.018531,68.3800856 128.53938,69.6279724 C128.798238,70.2542604 129.381035,70.5924447 129.754203,71.3331489 C130.054544,71.9339277 130.190979,72.4791866 130.190979,72.4791866 L127.12433,72.4791866 C127.12433,72.4791866 126.972224,71.3136419 127.048185,70.9762079 C127.12433,70.6350225 126.724613,70.573688 126.574719,70.3851826 C126.426485,70.1944264 126.500786,69.2267655 126.516642,68.4369186 C126.554623,66.6991054 126.108075,65.7171893 126.108075,65.7171893 C115.920822,65.224637 116.321461,54.5582339 122.436689,53.2255666 C118.465699,57.1125286 121.136503,61.6387208 125.698955,62.1729132 C125.891439,63.2551779 125.8105,64.1708826 125.8105,64.1708826 C126.701382,63.0738 127.418034,60.1933254 124.920355,57.2638956 C121.767421,53.5643135 122.881024,51.0375913 123.919588,49.4125061 C124.95723,47.7891091 129.520789,45.225436 129.781859,41.14678 C129.883447,39.5657732 127.925424,38.0922427 127.704178,33.4863343 C127.496945,29.219548 130.670897,27.2230791 130.670897,27.2230791 C130.189504,26.3529533 129.781859,25.1125692 129.781859,25.1125692 C129.781859,25.1125692 130.189504,25.1470816 131.154319,25.5602929 C132.190117,26.007829 132.750237,26.6943262 132.750237,26.6943262 C134.048211,26.6564376 134.96804,27.0773391 136.123311,27.9026363 C136.864115,28.428013 139.190881,29.8278295 139.720026,30.3590207 C140.614781,31.2537179 140.163624,32.0441275 140.163624,32.0441275 C139.539896,32.1305961 139.427245,31.9769783 138.980697,31.903827 C138.536363,31.8265491 138.321386,32.1056496 138.552218,32.3260415 C138.700637,32.4680301 138.867862,32.3806236 139.352759,32.417762 C139.835074,32.4554631 139.868445,32.8337868 139.868445,32.8337868 C139.868445,32.8337868 139.355156,33.4493834 138.720365,33.4493834 C138.162826,33.4493834 138.200069,32.9598322 137.310846,32.7715144 C136.422176,32.581696 136.026331,33.0324208 134.899085,33.1498381 C134.010599,33.2348062 133.614939,32.6509084 133.614939,32.6509084 C133.632638,33.5754288 134.793809,35.3068648 136.755704,36.6190872 C139.796356,38.6571961 139.802625,42.3297684 139.655865,43.0839775 C139.506709,43.8413752 140.090244,44.0572654 140.572928,43.9878654 C140.736834,43.9578546 141.050266,43.8982082 141.417718,43.8273076 L141.417718,40.3453039 C141.089352,40.7795227 140.749556,41.2334362 140.483139,41.5802486 C140.383948,40.6195276 140.096881,39.4177824 139.429642,38.2648048 C139.704171,37.8195195 140.832892,36.6963651 141.388403,34.7700465 L141.417718,34.6102389 C145.33653,33.3649781 150.244495,32.6263371 155.575408,32.6263371 C160.906505,32.6263371 165.827191,33.3649781 169.74582,34.6102389 C169.74582,34.6102389 170.958983,36.643471 171.588058,37.4126855 C172.364814,38.3615896 173.366504,39.0771598 173.800514,39.3663889 C173.044223,40.445465 172.649299,41.8561604 172.321487,43.9280314 C172.092867,43.8578811 171.656091,43.7554693 171.327726,43.8633206 C171.327726,43.8633206 171.25324,42.6379419 170.755806,41.2988973 C170.257081,39.9669802 169.916916,39.4010889 169.74582,39.1677549 L169.74582,47.4786849 C171.180413,46.874905 172.521346,45.8984284 173.017305,44.9620912 C173.184345,44.0724584 173.070588,41.3367859 175.250595,39.0480868 C176.713397,37.5199741 178.479674,37.5679914 180.103985,36.6363434 C183.93264,34.4446168 184.517466,32.4807847 183.643546,30.1842078 C183.643546,30.1842078 184.768396,29.8901019 184.712716,28.6763524 C184.712716,28.6763524 184.303596,29.478016 182.854806,29.7066608 C182.854806,29.7066608 183.658296,31.6562378 183.175796,32.7146814 C182.728143,33.7007239 181.796883,34.9050951 180.131088,35.6330447 C179.532987,35.8397441 178.831086,35.5084999 178.219342,35.7056333 C177.407186,35.9687906 177.161603,36.4692208 177.161603,36.4692208 C177.161603,36.4692208 175.854964,35.4488534 176.330642,33.9773861 C176.741052,34.2412936 177.42212,34.2870601 178.113144,34.0473488 C179.058969,33.7164796 179.663338,32.9708987 179.464954,32.3806236 C179.265096,31.7894108 178.336417,31.5782097 177.388933,31.9117048 C176.820332,32.1135275 176.370835,32.465029 176.154752,32.8424149 L176.124515,32.8472917 C176.124515,32.8472917 175.019762,32.4215134 175.24912,31.0430795 C175.24912,31.0430795 174.787454,30.7885504 174.814556,30.3425148 C174.814556,30.3425148 175.49544,29.7704338 177.078821,29.2398052 C177.078821,29.2398052 176.697909,28.6364005 177.014844,28.3659281 C177.63341,27.8347368 179.731371,27.3074845 179.731371,27.3074845 C179.731371,27.3074845 179.089943,26.7976759 180.038165,25.9086058 C180.933656,25.0724297 183.225392,23.8641197 186.98417,25.4672594 C188.9315,26.297996 191.880151,29.2896982 191.390276,33.6746521 C190.544381,41.3154032 185.117042,43.0650332 184.026301,44.3688151 C182.936298,45.675223 182.113817,47.9082145 184.464183,51.5965425 C185.931963,53.8978086 187.128164,55.4583705 187.128164,55.4583705 C190.053216,59.1560769 192.951349,56.1227347 191.538327,53.3397952 C190.756961,51.8163717 187.101246,50.9359297 185.536855,49.4860326 C183.442213,47.547147 184.855235,44.50724 187.272158,45.1614755 L187.324704,45.1762934 C187.507048,44.8855637 187.808495,44.664234 188.24527,44.5884567 C189.01078,44.4513448 189.745684,45.0266145 190.147245,45.6810376 C190.845828,46.8197601 191.79405,46.9015395 191.79405,46.9015395 C191.306756,47.4541135 190.256393,47.3280681 190.256393,47.3280681 C190.288842,47.4786849 190.566137,47.8103043 191.376633,48.0278826 C190.907039,49.0178641 186.993573,48.3171117 187.091106,46.2167305 C186.760897,46.1253851 186.437141,46.0993132 186.150443,46.2656856 C185.516021,46.6346309 185.185075,47.7118313 186.248898,48.6929971 C188.045412,50.3615979 191.584051,50.581427 192.865616,53.0473774 C194.745097,56.6522379 190.805451,61.4826646 186.640318,57.996722 Z M130.993916,52.8693758 C132.057554,54.432001 132.137018,55.873645 131.795747,57.3182902 C132.240819,57.251141 133.78327,57.1659854 133.973356,58.9985202 C134.072548,59.9757471 133.713209,60.0584643 133.267214,60.7764729 C132.82417,61.4927933 132.898472,61.9412673 132.898472,61.9412673 C132.898472,61.9412673 136.362071,64.5184452 137.663549,65.7826504 C137.663549,65.7826504 137.703373,65.8936904 138.162826,65.8220396 C138.49912,65.7698958 138.913955,65.7826504 138.913955,66.1641628 C138.913955,66.7488108 139.156956,67.2571188 139.156956,67.2571188 L141.900771,67.2571188 C141.900771,67.2571188 141.873668,66.0741303 139.838946,64.6966344 C139.07823,64.2631658 135.790889,62.3013969 135.568168,61.6229652 C135.463077,61.3022247 135.456993,60.6605561 135.974892,59.9434854 C136.497031,59.2254769 138.536363,55.5275829 137.867832,53.3375444 C137.527298,52.2239559 136.171616,51.197774 134.208799,51.6563766 C131.936422,52.1873803 131.078727,52.8384272 130.993916,52.8693758 Z M177.154782,52.8573715 C174.691396,52.1811905 172.33089,53.6440298 172.105588,56.2771028 C171.845072,59.2838104 173.913534,61.0066182 173.565072,62.0768786 C173.049016,63.6728908 171.352616,64.8903916 170.397941,64.5568965 C169.869717,64.3751436 169.000406,63.8201313 168.199497,65.4215829 C167.723819,66.3761141 167.330924,67.2563685 167.330924,67.2563685 L171.91458,67.2563685 C172.602838,67.2563685 172.884004,66.875794 173.005689,66.6668438 C174.09643,64.8690089 176.442186,62.609758 176.442186,62.609758 C175.400857,61.6465987 175.256679,60.1665032 175.909169,59.2333547 C176.516304,58.363229 177.464525,58.3009565 177.814831,58.3135236 C177.949606,56.5237541 178.9017,55.347143 180.671849,54.5919961 C179.450758,53.7048016 178.528901,53.2325066 177.154782,52.8573715 Z M147.176925,16.4069972 C146.985732,16.4069972 146.818138,16.578809 146.818138,16.7781933 C146.818138,16.9918327 146.985732,17.1533284 147.176925,17.1533284 C147.388768,17.1533284 147.551383,16.9918327 147.551383,16.7781933 C147.551383,16.578809 147.388768,16.4069972 147.176925,16.4069972 Z M150.148438,16.6056312 L150.148438,16.9539441 C150.148438,17.0651716 150.075611,17.1597057 149.981213,17.1597057 L147.909617,17.1597057 C147.770969,17.4260516 147.500497,17.6246856 147.180797,17.6246856 C146.857225,17.6246856 146.583434,17.4260516 146.447921,17.1597057 L144.345719,17.1597057 C144.254271,17.1597057 144.177572,17.0651716 144.177572,16.9539441 L144.177572,16.6056312 C144.177572,16.4914025 144.254271,16.3968685 144.345719,16.3968685 L146.449396,16.3968685 C146.587305,16.1271464 146.857225,15.9358275 147.180797,15.9358275 C147.499206,15.9358275 147.769494,16.1271464 147.905745,16.3968685 L149.981213,16.3968685 C150.075611,16.3968685 150.148438,16.4914025 150.148438,16.6056312 Z M150.526952,20.2159311 L149.247968,18.0463374 L147.973962,20.2159311 L150.526952,20.2159311 Z M151.004474,20.3813657 C151.004474,21.368346 150.221264,22.1634448 149.247968,22.1634448 C148.280387,22.1634448 147.494044,21.368346 147.494044,20.3813657 C147.494044,20.3492916 147.495703,20.3160922 147.499206,20.283643 L149.247968,17.3103224 L150.998021,20.283643 C151.002261,20.3160922 151.004474,20.3492916 151.004474,20.3813657 Z M146.411415,20.2159311 L145.135934,18.0463374 L143.858425,20.2159311 L146.411415,20.2159311 Z M146.892071,20.3813657 C146.892071,21.368346 146.107387,22.1634448 145.135934,22.1634448 C144.167985,22.1634448 143.379982,21.368346 143.379982,20.3813657 C143.379982,20.3492916 143.382932,20.3160922 143.385144,20.283643 L145.135934,17.3103224 L146.888937,20.283643 C146.888937,20.3160922 146.892071,20.3492916 146.892071,20.3813657 Z M128.78146,65.663545 C129.303599,65.6329715 131.857695,65.5027996 133.156591,65.6068996 C133.156591,65.6068996 132.323417,64.5477057 130.51326,64.4325393 C130.51326,64.4325393 131.13496,63.8966588 131.729189,63.7090913 C131.729189,63.7090913 130.979719,62.9421276 129.377164,62.8089547 C129.002521,63.6775799 128.760073,64.5366393 128.78146,65.663545 Z M164.600938,58.703664 C164.401817,58.6957862 164.232932,58.8912316 164.223714,59.1403213 C164.212836,59.3901612 164.370289,59.5966731 164.572176,59.6053012 C164.770559,59.6124287 164.932622,59.4169834 164.942762,59.1703321 C164.951059,58.918804 164.796924,58.7085408 164.600938,58.703664 Z M163.629485,57.7988382 C163.429627,57.7887096 163.26148,57.9880939 163.255396,58.2362457 C163.24673,58.4815841 163.397915,58.6879084 163.595561,58.6972867 C163.794313,58.703664 163.961169,58.5082187 163.970572,58.2576284 C163.980528,58.0102268 163.823997,57.8029647 163.629485,57.7988382 Z M162.601431,58.6383905 C162.403416,58.6305127 162.236007,58.82427 162.226604,59.0716715 C162.218307,59.3231996 162.374654,59.5248347 162.568981,59.5336504 C162.771421,59.5415282 162.936986,59.3468331 162.943808,59.0969932 C162.953211,58.8525927 162.799814,58.64383 162.601431,58.6383905 Z M163.42557,59.8671455 C163.455254,59.758919 163.514253,59.7094012 163.552787,59.7094012 C163.61787,59.711652 163.642022,59.7621076 163.671337,59.8804627 L163.797632,60.4210324 C163.829344,60.544827 163.906042,60.6117886 164.020905,60.6140394 L164.162503,60.6179783 C164.259298,60.6196664 164.36697,60.5746502 164.287322,60.3343762 L163.907886,59.1828991 C163.864927,59.0315321 163.752645,58.971698 163.671337,58.9677591 L163.515728,58.9613818 C163.39183,58.9574429 163.304254,59.022904 163.24673,59.1703321 L162.774187,60.3186205 C162.681263,60.5534551 162.84941,60.5770886 162.966486,60.5817778 C163.184044,60.5879675 163.222946,60.544827 163.294298,60.307554 L163.42557,59.8671455 Z M164.619744,44.7124388 C164.42136,44.7043734 164.24842,44.8990685 164.235514,45.1464701 C164.224451,45.3972479 164.370842,45.6067608 164.574019,45.6185776 C164.770559,45.6272057 164.939443,45.4356993 164.95364,45.1867971 C164.965809,44.9362069 164.82034,44.7257561 164.619744,44.7124388 Z M163.662303,43.7903568 C163.462445,43.7800406 163.290979,43.9745481 163.278811,44.2227 C163.26867,44.4710394 163.418011,44.6790518 163.614735,44.6908686 C163.813119,44.6994967 163.985322,44.5111789 164.000071,44.2600259 C164.011503,44.0094357 163.858843,43.8002979 163.662303,43.7903568 Z M162.621527,44.6135907 C162.426462,44.6027118 162.253706,44.7981572 162.240616,45.0423701 C162.228079,45.2899593 162.378526,45.4996598 162.575065,45.5082879 C162.772158,45.5199171 162.944546,45.3315993 162.95653,45.0825096 C162.967961,44.8311691 162.821386,44.6265329 162.621527,44.6135907 Z M163.427414,45.8597895 C163.458389,45.7566273 163.517203,45.7005446 163.552787,45.7054214 C163.61787,45.7054214 163.64571,45.759816 163.671337,45.8731067 L163.788229,46.4193034 C163.819203,46.5415974 163.88908,46.6061207 164.006893,46.6132482 L164.150887,46.6218763 C164.24086,46.6297542 164.355355,46.5839877 164.279394,46.3437137 L163.921529,45.1867971 C163.878386,45.0307409 163.767395,44.968281 163.683137,44.964342 L163.531215,44.9551512 C163.404736,44.9495242 163.315869,45.014235 163.255396,45.1550982 L162.76884,46.2979472 C162.666514,46.5391591 162.836873,46.5564153 162.951736,46.565231 C163.171875,46.5761099 163.207459,46.5295931 163.28342,46.2923202 L163.427414,45.8597895 Z M146.501757,59.6053012 C146.701616,59.5966731 146.856488,59.3901612 146.847453,59.1403213 C146.840632,58.8912316 146.671748,58.6957862 146.469861,58.703664 C146.275165,58.7085408 146.118634,58.918804 146.129143,59.1703321 C146.138361,59.4169834 146.304111,59.6124287 146.501757,59.6053012 Z M147.475053,58.6972867 C147.674912,58.6879084 147.828309,58.4815841 147.8178,58.2362457 C147.811531,57.9880939 147.6432,57.7887096 147.444817,57.7988382 C147.247355,57.8029647 147.092852,58.0102268 147.099858,58.2576284 C147.108708,58.5082187 147.279067,58.703664 147.475053,58.6972867 Z M148.499236,59.5336504 C148.698357,59.5248347 148.853229,59.3231996 148.844379,59.0716715 C148.837373,58.82427 148.66812,58.6305127 148.47324,58.6383905 C148.271538,58.64383 148.119984,58.8525927 148.127359,59.0969932 C148.133443,59.3468331 148.303987,59.5415282 148.499236,59.5336504 Z M147.780004,60.3083043 C147.85578,60.5455772 147.889889,60.5889053 148.110028,60.582528 C148.22231,60.5778388 148.390826,60.5542053 148.29864,60.3193708 L147.828309,59.1710823 C147.767098,59.0236542 147.678784,58.9583807 147.552121,58.9621321 L147.402227,58.9685094 C147.317416,58.9724483 147.207715,59.0322824 147.164756,59.1836494 L146.782555,60.3351265 C146.705119,60.575588 146.813529,60.6204167 146.909587,60.6187286 L147.052474,60.6149772 C147.167522,60.6125388 147.240349,60.5455772 147.272061,60.4219702 L147.400567,59.881213 C147.428223,59.7630455 147.453851,59.7124022 147.521146,59.7101514 C147.559864,59.7101514 147.615729,59.7596693 147.645597,59.8684584 L147.780004,60.3083043 Z M146.497885,45.6185776 C146.697744,45.6067608 146.84985,45.3972479 146.838235,45.1464701 C146.823116,44.8990685 146.650914,44.7043734 146.451793,44.7124388 C146.254146,44.7257561 146.107387,44.9362069 146.117159,45.1867971 C146.12988,45.4356993 146.298764,45.6272057 146.497885,45.6185776 Z M147.456063,44.6908686 C147.655184,44.6790518 147.806737,44.4710394 147.792356,44.2227 C147.780741,43.9745481 147.607616,43.7800406 147.41163,43.7903568 C147.212324,43.8002979 147.060955,44.0094357 147.07294,44.2600259 C147.087321,44.5111789 147.259155,44.6994967 147.456063,44.6908686 Z M148.496839,45.5082879 C148.692826,45.4996598 148.844379,45.2899593 148.831473,45.0423701 C148.82078,44.7981572 148.647655,44.6027118 148.449272,44.6135907 C148.252547,44.6265329 148.104128,44.8311691 148.115375,45.0825096 C148.128097,45.3315993 148.300115,45.5199171 148.496839,45.5082879 Z M147.788485,46.2923202 C147.867027,46.5295931 147.90427,46.5761099 148.119984,46.565231 C148.234295,46.5564153 148.405391,46.5391591 148.303987,46.2979472 L147.817062,45.1550982 C147.755113,45.014235 147.667168,44.9495242 147.538662,44.9551512 L147.388768,44.964342 C147.303772,44.9692188 147.191122,45.0307409 147.151666,45.1867971 L146.792142,46.344464 C146.718209,46.5839877 146.826988,46.6297542 146.920833,46.6218763 L147.067224,46.6139985 C147.180797,46.6061207 147.252333,46.5415974 147.283307,46.4193034 L147.402227,45.8731067 C147.428223,45.759816 147.449979,45.7054214 147.519671,45.7054214 C147.558389,45.7005446 147.611488,45.7566273 147.648916,45.8597895 L147.788485,46.2923202 Z M159.558566,19.0573264 C158.774619,19.5988339 158.597807,22.9932436 158.445516,24.530172 C158.266676,26.3278193 157.587821,27.6139698 157.587821,27.6139698 C158.978534,26.870077 159.605765,24.012298 159.431534,22.1634448 C159.286065,20.6674062 159.558566,19.0573264 159.558566,19.0573264 Z M156.752803,19.5168669 C157.130764,18.2181493 157.691438,17.721658 157.691438,17.721658 C157.081169,18.0288936 156.644393,18.3970887 155.741895,18.7958573 C154.63198,19.2893475 153.823696,19.1055313 153.823696,19.1055313 C153.267079,19.8528004 153.241451,23.0121879 153.366086,24.4015007 C153.432829,25.1189465 153.542714,26.7912986 153.542714,26.7912986 C154.656132,25.7360437 156.476984,20.4704602 156.752803,19.5168669 Z M165.438537,30.9279131 C165.154052,32.3513631 163.836534,32.016555 163.674472,32.0094275 C161.118163,31.6121594 155.300879,30.9502336 148.315234,31.8550594 C146.064613,31.8644378 146.299502,29.5929949 147.008041,29.2353036 C147.020762,29.3596609 146.750658,30.4891926 148.366673,30.9288509 C149.438608,31.2195806 150.373924,29.8499624 148.694485,29.0272912 C149.11393,28.4675897 150.745063,27.0426391 153.038458,30.3134418 C153.619228,31.1353628 155.505347,30.8815839 155.505347,30.022337 C155.505347,29.4669495 154.529654,27.0859672 151.423181,28.610141 C151.501908,28.2910886 151.501908,28.130906 151.577131,27.4611023 C151.652539,26.7912986 152.027182,19.6335339 152.483869,18.3498217 C152.888564,17.2268549 153.511002,16.6088198 153.511002,16.6088198 C153.511002,16.6088198 153.513768,16.240062 153.4367,15.9033783 C153.359633,15.5708211 153.122532,15.2690249 153.091557,14.7897899 C153.091557,14.7897899 152.021282,15.2815919 151.577131,15.5338703 C150.673712,16.0562459 149.718668,15.5606924 149.101393,15.4046362 C148.584047,15.277653 148.228948,14.9480969 147.788485,14.969292 C147.475053,14.9859855 147.310041,15.259459 147.23408,15.4605314 C147.191122,15.5786989 147.164019,15.5811373 147.123089,15.4541541 C147.05948,15.2452038 146.923968,14.9300904 146.664373,14.7410223 C146.367719,14.5249445 146.269265,14.0828478 146.474101,13.9024078 C146.812792,13.8140635 147.525018,13.7508533 147.832181,13.8787743 C148.133443,14.0126976 149.82966,14.7873515 150.716301,14.6093499 C151.474805,14.4579829 152.309454,13.3490836 152.661603,13.041848 C153.013753,12.733487 153.343777,12.6310751 153.343777,12.6310751 C153.343777,12.6310751 153.542714,12.7076026 153.646884,13.1198761 C153.74921,13.5334625 154.330717,15.5835757 155.583151,15.5835757 C156.830239,15.5835757 157.362335,12.8880426 157.714853,12.7604967 C158.068108,12.6310751 158.068108,12.9131767 158.143332,13.2489226 C158.216896,13.5841057 158.216896,15.4327714 158.850765,16.2014231 C159.385073,16.853783 160.391556,17.5654143 162.008308,17.2589289 C162.561422,17.2589289 162.790411,17.8752758 162.762755,18.0793493 C162.738603,18.2843606 162.632405,18.3078066 162.511826,18.5398276 C162.284865,18.9800486 162.63812,19.8762463 162.083347,19.8762463 C161.399514,19.8762463 162.008308,18.7705357 161.45206,18.3363168 C161.096223,18.1054212 160.441889,18.3102449 160.441889,18.3102449 C160.441889,18.3102449 160.363531,20.2860814 160.441889,21.0853066 C160.516191,21.8828438 160.823538,27.5541358 160.039038,28.4028789 C160.039038,28.4028789 159.799539,28.335167 159.457715,28.3533611 C158.920088,28.3809335 158.082305,28.6069524 157.729049,28.8626069 C158.637447,29.4157436 158.963784,30.3275094 159.716572,30.8420071 C160.246456,31.2023244 162.640333,31.0209466 161.37278,29.2833209 C163.441058,27.9885422 165.706613,29.6070625 165.438537,30.9279131 Z M155.483775,9.26029891 C156.328196,9.26104918 156.807193,9.38334321 156.807193,9.38334321 C156.807193,9.38334321 156.525842,8.28701096 155.888286,8.28701096 C155.583151,8.28701096 155.698568,8.39636284 155.477691,8.38229527 C155.263452,8.39636284 155.379237,8.28701096 155.071705,8.28701096 C154.434334,8.28701096 154.154458,9.38334321 154.154458,9.38334321 C154.154458,9.38334321 154.632902,9.26104918 155.483775,9.26029891 Z M154.140077,10.0516463 C154.140077,10.0516463 154.140077,11.0123673 153.823696,11.4047585 C153.823696,11.4047585 154.317995,11.6452201 154.821145,11.4599034 C154.821145,11.4599034 154.977123,11.6304023 154.948545,12.0014109 C154.948545,12.0014109 154.307855,12.3671676 153.676199,12.4121838 C153.676199,12.4121838 154.354317,14.1576873 155.4823,14.1640646 C156.597931,14.1576873 157.279552,12.4121838 157.279552,12.4121838 C156.645868,12.3671676 156.005915,12.0014109 156.005915,12.0014109 C155.976416,11.6304023 156.134422,11.4599034 156.134422,11.4599034 C156.639599,11.6452201 157.132239,11.4047585 157.132239,11.4047585 C156.814752,11.0123673 156.814752,10.0516463 156.814752,10.0516463 C156.814752,10.0516463 156.364517,10.3022366 155.473082,10.3022366 C154.58939,10.3022366 154.140077,10.0516463 154.140077,10.0516463 Z M161.998905,6 C161.91686,6 161.709073,6.25677996 161.684368,6.59665233 L161.572639,15.8891232 C161.711655,15.9050664 161.853252,15.9168832 161.998905,15.9168832 C162.144558,15.9168832 162.284865,15.9050664 162.426462,15.8891232 L162.313443,6.59665233 C162.287815,6.25677996 162.083347,6 161.998905,6 Z M161.998905,16.2610696 C161.584623,16.2610696 161.193202,16.1792902 160.847875,16.0389896 L160.847875,16.8387776 L163.205615,16.8387776 L163.205615,16.0192951 C162.848119,16.1697242 162.435865,16.2610696 161.998905,16.2610696 Z M182.292473,74.6874192 C179.431768,72.7686033 171.57718,68.470118 160.812107,67.4384966 C159.058182,68.3455732 157.315873,69.268593 155.583151,70.2069934 C155.583151,70.2069934 153.387473,69.0232547 150.406558,67.4746971 C139.843555,68.5725299 132.147527,72.7922368 129.324802,74.6874192 L182.292473,74.6874192 Z M120.663037,21.6903995 C121.375448,23.7712737 122.87328,27.6841201 124.63882,29.5346614 C124.71515,29.5913068 124.757371,29.6796511 124.757371,29.7805625 C124.757371,29.9444965 124.626467,30.0776694 124.462193,30.0776694 C124.381991,30.0776694 124.306583,30.0469084 124.255697,29.9925138 C123.956646,29.7805625 121.829001,28.1209649 119.926842,22.8079269 C119.115977,24.1803585 118.564154,25.6917777 118.208501,27.239585 C119.453377,29.1713431 121.492708,32.0392507 123.381592,33.277384 C123.460872,33.3152727 123.523743,33.3916126 123.546605,33.4853964 C123.585691,33.6463294 123.488712,33.8087628 123.326096,33.8457137 C123.246817,33.864658 123.168828,33.8502153 123.104113,33.8102634 C122.789576,33.678591 120.658428,32.6934863 117.926045,28.7442518 C117.681015,30.3976596 117.636028,32.0542561 117.730242,33.5840569 C119.460383,34.702147 121.563322,35.8616895 123.238151,36.1903078 C123.326096,36.1964976 123.413304,36.239263 123.466403,36.3180413 C123.563198,36.4519646 123.531486,36.6442213 123.394314,36.741944 C123.328493,36.7869602 123.252164,36.800465 123.177862,36.789211 C122.875677,36.789211 121.01998,36.7098699 117.843631,34.8859632 C117.868521,35.1018534 117.89507,35.3100534 117.923832,35.5195663 C118.094191,36.7074315 118.332399,37.7578097 118.626102,38.6885199 C120.363249,38.983376 122.229087,39.1598771 123.618141,38.9075987 C123.702214,38.8760874 123.797165,38.8895923 123.878842,38.9456749 C124.016383,39.0362701 124.049754,39.2223371 123.959781,39.3616997 C123.915532,39.4271608 123.84547,39.4727397 123.771169,39.4862446 C123.513971,39.5871559 122.022591,40.0986526 119.013098,39.7739732 C119.495229,40.9646519 120.080977,41.9144939 120.716873,42.6497586 C122.292326,42.4693187 123.874232,42.1532674 125.008669,41.6108221 C125.087396,41.5573653 125.180688,41.544048 125.272873,41.5763096 C125.423505,41.6292037 125.508316,41.8017658 125.454479,41.957822 C125.427377,42.0382885 125.374462,42.0954966 125.308457,42.131322 C125.10952,42.2776247 124.016383,43.0192667 121.600934,43.508818 C125.172207,46.4091748 129.68912,43.7911071 128.511725,40.5234931 C128.489416,40.4398379 128.457704,40.3588088 128.402392,40.2736531 C128.334912,40.173492 128.241805,40.1144083 128.141876,40.1144083 C128.015213,40.1144083 127.901087,40.2136315 127.825494,40.3713758 C127.804107,40.4051379 127.790648,40.4525925 127.755802,40.4737877 C127.625636,40.5611941 127.449377,40.5264941 127.361432,40.4002612 C127.319579,40.3295482 127.305199,40.2539585 127.319579,40.180432 C127.321239,40.0339418 127.347973,39.4933722 127.608121,38.5885464 C127.627111,38.5095804 127.639095,38.4206734 127.641492,38.3315788 C127.657532,37.8594713 127.437024,37.4685806 127.14498,37.458452 C127.002092,37.4552633 126.868792,37.5419195 126.771997,37.6869092 C126.748213,37.7051033 126.720373,37.7257357 126.691426,37.7383027 C126.549276,37.8013254 126.378733,37.7383027 126.316784,37.5916249 C126.285072,37.5207244 126.285072,37.4451347 126.309409,37.3747968 C126.340383,37.2108628 126.426485,36.6646661 126.970196,35.6424231 C127.022926,35.5615815 127.053532,35.4636712 127.053532,35.3565702 C127.053532,35.0703421 126.885385,34.735534 126.606984,34.735534 C126.453034,34.735534 126.316784,34.8071848 126.222201,34.9129729 C126.206345,34.9292913 126.185143,34.9388573 126.163018,34.9482356 C126.021605,35.0129464 125.854381,34.9482356 125.787638,34.8024957 C125.756664,34.7330957 125.756664,34.6528168 125.784504,34.5871681 C125.818612,34.3926606 126.014599,33.5431672 126.813296,32.1953069 C126.878379,32.1135275 126.916359,32.0069891 126.916359,31.8959491 C126.916359,31.6183492 126.695298,31.3947687 126.424457,31.3947687 C126.263685,31.3947687 126.124669,31.4686703 126.033589,31.5900265 C126.002615,31.6247265 125.962791,31.6446086 125.918542,31.6603643 C125.767173,31.7059432 125.611379,31.6209751 125.565286,31.4686703 C125.540212,31.3930806 125.551458,31.3133644 125.583908,31.2480908 C125.652863,31.0352017 126.032114,29.9925138 127.358297,28.4321394 C127.083584,28.0183655 126.231973,26.6871987 125.255542,24.7711963 C123.652987,21.6322536 123.145966,19.2143205 123.145966,19.2143205 C122.167138,19.9338295 121.346686,20.7690678 120.663037,21.6903995 Z M103.766142,92.2553697 C103.766142,90.1298544 103.295811,88.8043146 100.967385,88.8043146 C98.9730404,88.8043146 97.698297,90.5160559 97.2652088,91.4846547 L97.2652088,83.9519424 L82.1604031,83.9519424 L82,87.1572841 L82.714992,87.1572841 L82.7181263,87.1405906 C82.9257285,85.8882021 83.2448752,85.0040088 85.4082884,85.0040088 L87.3255659,85.0040088 L87.3255659,97.0653516 C87.3255659,98.6714924 86.543094,98.7859086 85.2532321,98.7859086 L85.2327669,98.7859086 L85.2327669,99.4195117 L91.5402945,99.4195117 L91.5402945,98.7859086 L91.5201981,98.7859086 C90.2345768,98.7859086 89.4450987,98.7071302 89.4450987,97.0653516 L89.4450987,85.0040088 L93.8255772,85.0040088 C94.4078219,85.0040088 95.3827775,85.1844487 95.3827775,86.4028874 L95.3827775,97.3090018 C95.3827775,98.6045308 94.8058796,98.8568091 93.74851,98.8568091 L93.7280448,98.8568091 L93.7280448,99.4195117 L98.9214164,99.4195117 L98.9214164,98.8568091 L98.9024262,98.8568091 C97.8395255,98.8568091 97.2652088,98.6045308 97.2652088,97.3090018 L97.2652088,94.5979006 C97.2652088,92.5014583 99.1074471,90.0604544 100.31047,90.0604544 C101.656934,90.0604544 101.884632,90.8808748 101.884632,92.7417323 L101.884632,97.3090018 C101.884632,98.7352653 101.10806,98.8568091 100.246309,98.8568091 L100.228056,98.8568091 L100.228056,99.4195117 L105.422718,99.4195117 L105.422718,98.8568091 L105.402437,98.8568091 C104.365349,98.8568091 103.766142,98.5998416 103.766142,97.3090018 L103.766142,92.2553697 Z M112.669065,92.2474918 C112.655606,91.4792152 112.432885,89.7303355 110.691313,89.7303355 C109.199196,89.7303355 108.505223,91.3593596 108.45913,92.2474918 L112.669065,92.2474918 Z M114.801504,92.7936885 C114.801504,92.9111058 114.799844,93.0213955 114.792101,93.1436895 L114.790073,93.1626339 L108.453599,93.1626339 C108.481623,95.0651314 109.442935,98.6311654 112.894551,98.6311654 C113.745425,98.6311654 114.475166,98.3012341 114.480329,98.2978578 L114.509459,98.2854784 L114.509459,99.212062 L114.498581,99.2154382 C114.48881,99.2201274 113.509245,99.6408414 111.826672,99.6408414 C108.313476,99.6408414 106.460729,97.6674434 106.460729,93.9389759 C106.460729,90.4933603 107.936621,88.8050649 110.974877,88.8050649 C111.814688,88.8050649 112.996877,88.9990097 113.840929,89.8920187 C114.479591,90.5822673 114.801504,91.5555552 114.801504,92.7936885 Z M224.773472,89.549708 L224.790987,89.549708 C225.354241,89.5459566 225.662879,89.6106674 225.811667,89.7633474 C225.90588,89.8516917 225.94847,89.9903041 225.94847,90.1983165 C225.94847,90.4222722 225.682975,91.1316526 225.451036,91.7652557 C225.450483,91.7706952 223.787085,96.2835701 223.609904,96.7628051 C223.571002,96.666583 220.487944,88.9823162 220.487944,88.9823162 L214.390969,88.9823162 L214.390969,85.6496162 L213.515574,85.6496162 L213.515574,85.6708113 C213.515574,87.9366272 212.610679,88.9823162 210.688055,88.9823162 L210.667959,88.9823162 L210.667959,90.0023084 L212.401418,90.0023084 L212.401418,96.2308636 C212.401418,98.7645259 212.572146,99.6408414 215.902998,99.6408414 C216.371117,99.6408414 216.993739,99.5455571 217.001667,99.5455571 L217.015863,99.5399301 L217.012545,98.5942146 L216.990973,98.5990913 C216.98618,98.5998416 216.474918,98.7078805 216.076676,98.7140702 C214.989069,98.7581486 214.390969,98.4351573 214.390969,96.8580894 L214.390969,90.0023084 L217.402859,90.0023084 C218.625425,90.0023084 219.02588,90.5003003 219.681873,92.0616124 C219.681873,92.0616124 222.684913,99.3296669 222.686204,99.3358566 C222.68012,99.3358566 222.137146,100.689156 222.137146,100.689156 L222.011405,101.015336 C221.42197,102.565582 219.792864,103.186806 217.663191,102.659366 L217.635536,102.651488 L217.635536,103.940077 L217.722374,103.952831 C222.007902,104.310523 222.690997,102.592404 223.631476,100.205982 C223.636269,100.204294 226.902407,91.4822163 226.936885,91.3884325 C227.382695,90.1983165 227.841042,89.549708 228.983038,89.549708 L229,89.549708 L229,88.9823162 L224.773472,88.9823162 L224.773472,89.549708 Z M198.31932,85.5445784 C198.31932,84.7785526 197.527445,84.1747727 196.790697,84.1747727 C196.056531,84.1747727 195.69,84.7785526 195.69,85.5445784 C195.69,86.3083534 196.486484,86.9050057 197.222495,86.9050057 C197.958136,86.9050057 198.31932,86.3083534 198.31932,85.5445784 Z M198.21091,88.7450433 L198.190813,88.7474816 L194.736432,89.3197502 L194.736432,89.8546928 L194.751181,89.8571312 C195.355366,89.8832031 196.360006,89.9321582 196.360006,91.2237482 L196.360006,97.2977477 C196.360006,98.598341 195.769833,98.8568091 194.753947,98.8568091 L194.736432,98.8568091 L194.736432,99.4195117 L199.837618,99.4195117 L199.837618,98.8568091 L199.821393,98.8568091 C198.802557,98.8568091 198.21091,98.598341 198.21091,97.2977477 L198.21091,88.7450433 Z M190.828128,90.5743894 C191.001806,91.3128428 191.184334,92.0678021 192.07706,92.0678021 C192.722359,92.0678021 193.17241,91.598133 193.17241,90.9266413 C193.17241,89.3409453 191.388802,88.7577978 189.713972,88.7577978 C185.817469,88.7577978 184.999229,91.5548049 184.999229,93.8932094 C184.999229,97.6501871 186.910238,99.6408414 190.533687,99.6408414 C192.038157,99.6408414 192.891243,99.2578285 192.89954,99.2570782 L192.910234,99.2531393 L192.910234,98.4248411 L192.884053,98.4319686 C192.873175,98.4351573 192.197639,98.6311654 191.626825,98.6311654 C188.592995,98.6311654 186.957805,95.8255302 186.957805,93.1774517 C186.957805,90.9889137 187.882612,89.6886955 189.438153,89.6886955 C190.428411,89.6886955 190.741474,90.1692436 190.828128,90.5743894 Z M178.625143,89.6877577 C176.383188,89.6877577 176.142952,92.8480831 176.142952,94.1989445 C176.142952,95.5606848 176.383188,98.7133199 178.625143,98.7133199 C180.870417,98.7133199 181.114893,95.5606848 181.114893,94.1989445 C181.114893,92.8480831 180.870417,89.6877577 178.625143,89.6877577 Z M183.200502,94.1989445 C183.200502,97.5579039 181.447315,99.6400911 178.625143,99.6400911 C175.807027,99.6400911 174.049047,97.5579039 174.049047,94.1989445 C174.049047,90.843924 175.807027,88.7570476 178.625143,88.7570476 C181.447315,88.7570476 183.200502,90.843924 183.200502,94.1989445 Z M167.998901,90.3363662 C166.442623,89.549708 164.971893,88.806753 164.971893,87.3219684 C164.971893,85.948974 165.907762,84.9109753 167.441916,84.9109753 C170.126731,84.9109753 170.899247,86.7448231 171.020932,87.5299808 L171.022407,87.5504256 L171.749014,87.5504256 L171.369394,84.2394835 L171.352616,84.2370451 C171.338419,84.2316056 169.793756,83.8382765 167.85712,83.8328178 C166.065952,83.8303987 164.661596,84.2891889 163.80095,85.1655044 C163.143667,85.8354956 163.024563,86.7174382 163.024563,87.8017661 C163.024563,89.2218399 163.434236,90.107909 164.49013,90.9448353 C165.158845,91.4846547 165.991651,91.9070568 166.797353,92.3390248 C168.529338,93.2500403 170.168583,94.1098499 170.168583,95.7403745 C170.168583,97.3624585 168.861022,98.5407578 167.065245,98.5407578 C164.74106,98.5407578 163.729599,97.1214343 163.568274,95.924941 L163.567536,95.9005572 L162.841666,95.9005572 L163.002254,99.3075339 L163.017004,99.3075339 C163.039312,99.3146615 165.168986,99.7528192 166.886958,99.7528192 C170.300409,99.7528192 172.422338,98.0763406 172.422338,95.377994 C172.422338,93.0885447 171.144829,92.1317627 169.47,91.1149591 C169.024559,90.8424234 168.009042,90.3388046 167.998901,90.3363662 Z M207.370846,92.2474918 C207.355359,91.4792152 207.131348,89.7303355 205.393832,89.7303355 C203.898765,89.7303355 203.203132,91.3593596 203.154827,92.2474918 L207.370846,92.2474918 Z M209.496463,92.5873642 L209.496463,93.1626339 L203.151877,93.1626339 C203.179717,95.0651314 204.143241,98.6311654 207.594488,98.6311654 C208.4461,98.6311654 209.175657,98.3012341 209.18211,98.2978578 L209.209213,98.2854784 L209.209213,99.212062 L209.197597,99.2154382 C209.187641,99.2201274 208.210657,99.6408414 206.5279,99.6408414 C203.015442,99.6408414 201.160851,97.6674434 201.160851,93.9389759 C201.160851,90.4933603 202.636559,88.8050649 205.67592,88.8050649 C207.524243,88.8050649 209.496463,89.7957966 209.496463,92.5873642 Z M135.421225,98.5250021 C136.920717,98.5250021 138.035057,97.03309 138.035057,95.6979842 L138.035057,94.478045 C136.807144,94.5142455 133.999722,94.8034747 133.999722,96.6727727 C133.999722,97.8195606 134.739972,98.5250021 135.421225,98.5250021 Z M141.430255,98.760587 L141.430255,99.4195117 L141.417718,99.4273895 C141.410343,99.4320787 140.743472,99.6408414 139.799491,99.6408414 C138.669663,99.6408414 138.113599,99.1499772 138.05331,98.1087898 C137.325227,99.0845161 136.070027,99.6408414 134.591554,99.6408414 C133.015732,99.6408414 131.82838,98.5178746 131.82838,97.03309 C131.82838,93.9294099 136.008078,93.6771316 138.035057,93.5597143 L138.035057,93.4550516 C138.035057,91.3261601 137.860457,89.7074523 135.992223,89.6886955 C134.624187,89.6886955 134.440553,90.2945387 134.440553,90.8778737 C134.440553,91.8708562 133.697168,92.1349513 133.304089,92.1349513 C132.626708,92.1349513 132.134621,91.6731601 132.134621,91.0346802 C132.134621,89.491562 134.449403,88.7570476 136.017113,88.7570476 C138.748205,88.7570476 139.963028,89.8807647 139.963028,92.4042983 L139.963028,97.926099 C139.963028,98.6140967 140.200683,98.8646869 140.868476,98.8755659 C141.102074,98.8819432 141.401124,98.7709032 141.404259,98.7709032 L141.430255,98.760587 Z M126.982917,98.3443746 L125.504628,98.3443746 C124.193564,98.3443746 124.088472,98.235773 124.088472,96.9841348 L124.088472,86.3886323 C124.088472,84.6832683 124.813604,84.6035521 125.996531,84.6035521 L126.014599,84.6035521 L126.014599,83.9526927 L120.0229,83.9526927 L120.0229,84.6035521 L120.042627,84.6035521 C121.227213,84.6035521 121.945708,84.7179683 121.945708,86.3886323 L121.945708,96.9841348 C121.945708,98.6542362 121.227213,98.7763426 120.042627,98.7763426 L120.0229,98.7763426 L120.0229,99.420262 L130.115755,99.420262 L130.277817,95.9367577 L129.558032,95.9367577 L129.55416,95.9495123 C129.187814,97.6816985 128.866271,98.3443746 126.982917,98.3443746 Z M157.801692,88.7562973 L157.801692,89.3221886 L157.783623,89.3235015 C156.559766,89.4167226 156.271594,89.788669 155.917601,91.0654412 L153.625312,99.4195117 L152.544159,99.4195117 C152.544159,99.4195117 149.775455,91.392559 149.739871,91.2820817 C149.70355,91.3955601 147.137285,99.4195117 147.137285,99.4195117 L146.017782,99.4195117 L146.016307,99.4052566 C143.451702,91.1307147 143.44949,91.1284639 143.451702,91.1307147 C143.035392,89.7667236 142.870379,89.4127837 141.470079,89.3235015 L141.450351,89.3221886 L141.450351,88.7562973 L146.325129,88.7562973 L146.325129,89.3300664 L146.304849,89.3300664 C145.247479,89.3465723 145.1151,89.6808177 145.1151,89.9715474 C145.1151,90.1748706 145.157321,90.5303111 145.254854,90.8109121 C145.254854,90.8109121 146.823116,96.3246474 146.857963,96.4506928 C146.895206,96.3246474 149.287792,88.7562973 149.287792,88.7562973 L150.663387,88.7562973 C150.663387,88.7562973 153.13765,96.3246474 153.177843,96.4536938 C153.336771,95.8557285 154.556941,91.1742304 154.556941,91.1742304 C154.649495,90.7643953 154.737071,90.2268268 154.737071,89.9454755 C154.737071,89.4489842 154.452033,89.3520118 153.64209,89.3323172 L153.625312,89.3323172 L153.625312,88.7562973 L157.801692,88.7562973 Z"/>
</svg>
