<svg xmlns="http://www.w3.org/2000/svg" width="310" height="110" viewBox="0 0 310 110">
  <path fill="#F7F7EF" fill-rule="evenodd" d="M176.724,55.89 C177.481,54.7 177.86,53.347 177.86,51.834 C177.86,49.286 177.139,47.237 175.696,45.686 C174.254,44.137 172.127,43.362 169.315,43.362 L156.769,43.362 L156.769,66.578 L164.52,66.578 L164.52,60.234 L164.52,54.249 L164.52,52.465 L164.52,49.382 L167.548,49.382 C169.159,49.382 169.964,50.2 169.964,51.834 C169.964,52.626 169.741,53.228 169.297,53.637 C168.852,54.045 168.209,54.249 167.369,54.249 L166.734,54.249 L166.734,60.253 L169.459,66.578 L177.535,66.578 C177.535,66.578 174.133,59.152 173.678,58.791 C174.951,58.047 175.967,57.078 176.724,55.89 L176.724,55.89 Z M178.757,66.578 L186.907,66.578 L191.114,57.411 L186.663,45.31 L178.757,66.578 Z M188.816,43.363 L197.355,66.578 L206.01,66.578 L197.471,43.363 L188.816,43.363 Z M69.5,66.578 L78.271,66.578 L81.857,57.411 L77.407,45.31 L69.5,66.578 Z M79.559,43.363 L88.098,66.578 L96.753,66.578 L88.214,43.363 L79.559,43.363 Z M267.078,56.34 C266.718,55.403 266.045,54.574 265.058,53.853 C264.073,53.132 262.656,52.518 260.805,52.014 C259.627,51.702 258.805,51.473 258.335,51.329 C257.867,51.184 257.506,51.017 257.254,50.825 C257.001,50.632 256.876,50.379 256.876,50.067 C256.876,49.587 257.169,49.262 257.759,49.094 C258.348,48.926 259.158,48.842 260.192,48.842 C262.067,48.842 264.121,49.286 266.357,50.176 L266.357,44.082 C265.395,43.794 264.205,43.541 262.787,43.325 C261.37,43.109 260.071,43 258.893,43 C252.285,43 248.98,45.381 248.98,50.139 C248.98,51.437 249.172,52.518 249.557,53.384 C249.941,54.249 250.566,54.988 251.432,55.6 C252.296,56.214 253.51,56.786 255.073,57.314 C255.625,57.506 256.082,57.65 256.443,57.745 C257.692,58.155 258.545,58.486 259.002,58.737 C259.458,58.99 259.687,59.345 259.687,59.801 C259.687,60.306 259.441,60.661 258.948,60.865 C258.456,61.07 257.705,61.171 256.695,61.171 C255.589,61.171 254.352,61.003 252.982,60.667 C251.612,60.329 250.361,59.897 249.233,59.369 L249.233,65.425 C250.242,65.906 251.474,66.278 252.928,66.542 C254.381,66.807 255.913,66.94 257.524,66.94 C260.816,66.94 263.322,66.297 265.041,65.01 C266.76,63.725 267.619,61.977 267.619,59.765 C267.619,58.418 267.439,57.278 267.078,56.34 L267.078,56.34 Z M227.89,49.022 L234.091,49.022 L234.091,66.578 L241.843,66.578 L241.843,49.022 L248.079,49.022 L248.079,43.362 L227.89,43.362 L227.89,49.022 Z M214.892,59.116 C213.871,58.276 213.361,56.916 213.361,55.042 C213.361,53.119 213.86,51.725 214.857,50.86 C215.854,49.995 217.351,49.563 219.345,49.563 C221.628,49.563 223.851,50.043 226.016,51.005 L226.016,44.263 C224.886,43.829 223.756,43.511 222.626,43.307 C221.496,43.104 220.223,43 218.805,43 C214.407,43 211.083,44.023 208.836,46.065 C206.589,48.109 205.466,51.1 205.466,55.042 C205.466,58.911 206.606,61.862 208.89,63.893 C211.174,65.924 214.502,66.94 218.877,66.94 C220.271,66.94 221.544,66.843 222.698,66.651 C223.851,66.459 224.981,66.159 226.087,65.749 L226.087,58.972 C223.973,59.91 221.748,60.377 219.418,60.377 C217.423,60.377 215.914,59.957 214.892,59.116 L214.892,59.116 Z M134.057,49.022 L140.259,49.022 L140.259,66.578 L148.01,66.578 L148.01,49.022 L154.246,49.022 L154.246,43.362 L134.057,43.362 L134.057,49.022 Z M123.783,54.069 L116.14,43.362 L109.614,43.362 L109.614,66.578 L117.365,66.578 L117.365,55.908 L124.936,66.578 L131.534,66.578 L131.534,43.362 L123.783,43.362 L123.783,54.069 Z M98.979,66.578 L106.73,66.578 L106.73,43.361 L98.979,43.361 L98.979,66.578 Z M60.882,43.362 L68.308,43.362 L68.308,66.578 L60.557,66.578 L60.557,56.701 L57.674,62.614 L53.636,62.614 L50.751,56.701 L50.751,66.578 L43,66.578 L43,43.362 L50.427,43.362 L55.691,54.069 L60.882,43.362 Z"/>
</svg>
