<svg xmlns="http://www.w3.org/2000/svg" width="310" height="110" viewBox="0 0 310 110">
  <path fill="#F7F7EF" fill-rule="evenodd" d="M232.225231,32.9565332 L226.813397,68.3974453 C226.708664,69.0841063 227.224368,69.7045602 227.899317,69.7045602 L233.341162,69.7045602 C234.243339,69.7045602 235.01077,69.0298796 235.150415,68.1130705 L240.486302,33.308376 C240.591648,32.6217151 240.075943,32 239.400995,32 L233.310538,32 C232.769722,32 232.309141,32.4060695 232.225231,32.9565332 M164.371512,44.5559963 L158.026265,44.5559963 C157.41869,44.5559963 156.851537,44.8662233 156.510388,45.3832682 L147.756888,58.655561 L144.047123,45.9015743 C143.814995,45.1039378 143.101461,44.5559963 142.29238,44.5559963 L136.054317,44.5559963 C135.300972,44.5559963 134.77118,45.3189529 135.014333,46.0535351 L142.001455,67.1678871 L135.428979,76.7143031 C134.913887,77.4640184 135.433879,78.5 136.326256,78.5 L142.665378,78.5 C143.266217,78.5 143.829082,78.196709 144.170843,77.6884916 L165.274914,46.3328655 C165.780206,45.5818892 165.258377,44.5559963 164.371512,44.5559963 M215.984829,57.2072045 C215.375416,60.9211008 212.51148,63.413636 208.859901,63.413636 C207.027986,63.413636 205.562332,62.8070539 204.620345,61.6594663 C203.685707,60.5213368 203.334146,58.9002115 203.630584,57.0937068 C204.198962,53.4132292 207.108833,50.8399845 210.705902,50.8399845 C212.498618,50.8399845 213.954473,51.4522415 214.914834,52.6111789 C215.881933,53.7776829 216.262281,55.4101578 215.984829,57.2072045 M224.784266,44.5559963 L218.470255,44.5559963 C217.929439,44.5559963 217.468857,44.9608047 217.384948,45.5112684 L217.106884,47.3284924 L216.665902,46.6702058 C215.298244,44.6272476 212.251791,43.9450004 209.208399,43.9450004 C202.23414,43.9450004 196.275978,49.3859531 195.115949,57.0180417 C194.51266,60.8252583 195.368901,64.4641201 197.466018,67.0033154 C199.392866,69.3369539 202.142269,70.3079896 205.417176,70.3079896 C211.039701,70.3079896 214.157815,66.5896794 214.157815,66.5896794 L213.876076,68.3961842 C213.770117,69.0834757 214.285822,69.7045602 214.961382,69.7045602 L220.646993,69.7045602 C221.547945,69.7045602 222.315377,69.0298796 222.456246,68.1130705 L225.86896,45.8637418 C225.974918,45.1770808 225.459214,44.5559963 224.784266,44.5559963 M121.947779,57.2072045 C121.338366,60.9211008 118.47443,63.413636 114.822238,63.413636 C112.990936,63.413636 111.525282,62.8070539 110.582682,61.6594663 C109.648657,60.5213368 109.297096,58.9002115 109.593534,57.0937068 C110.161912,53.4132292 113.071783,50.8399845 116.668852,50.8399845 C118.460956,50.8399845 119.91681,51.4522415 120.877784,52.6111789 C121.844883,53.7776829 122.224618,55.4101578 121.947779,57.2072045 M130.746603,44.5559963 L124.433205,44.5559963 C123.892389,44.5559963 123.431808,44.9608047 123.347286,45.5112684 L123.069835,47.3284924 L122.628852,46.6702058 C121.261194,44.6272476 118.214128,43.9450004 115.171349,43.9450004 C108.19709,43.9450004 102.238315,49.3859531 101.078287,57.0180417 C100.474998,60.8252583 101.331851,64.4641201 103.428968,67.0033154 C105.355203,69.3369539 108.104606,70.3079896 111.380126,70.3079896 C117.002651,70.3079896 120.120765,66.5896794 120.120765,66.5896794 L119.838413,68.3961842 C119.733068,69.0834757 120.248772,69.7045602 120.924333,69.7045602 L126.609943,69.7045602 C127.510895,69.7045602 128.278327,69.0298796 128.419196,68.1130705 L131.83191,45.8637418 C131.937256,45.1770808 131.421551,44.5559963 130.746603,44.5559963 M92.8607017,44.7123708 C92.139818,49.5845741 88.5255996,49.5845741 85.029589,49.5845741 L83.0402683,49.5845741 L84.4354877,40.4871044 C84.5200093,39.9372712 84.980591,39.5324628 85.5214069,39.5324628 L86.4327706,39.5324628 C88.8128506,39.5324628 91.060636,39.5324628 92.2194398,40.9284843 C92.9127621,41.7639533 93.1228413,43.0017086 92.8607017,44.7123708 M91.3393124,32 L78.1545507,32 C77.2529866,32 76.4855547,32.6759417 76.3446854,33.5927508 L71.0136979,68.3968147 C70.9083522,69.0841063 71.4240566,69.7045602 72.0990047,69.7045602 L78.3940286,69.7045602 C79.2955927,69.7045602 80.0630246,69.0298796 80.203894,68.1130705 L81.6425991,58.723029 C81.782856,57.80622 82.5502879,57.1309088 83.4518519,57.1309088 L87.6240355,57.1309088 C96.3083267,57.1309088 101.320827,52.8047555 102.6303,44.2287446 C103.220114,40.4782768 102.654186,37.5311203 100.948442,35.4673542 C99.0730415,33.1999227 95.749749,32 91.3393124,32 M186.897752,44.7123708 C186.176868,49.5845741 182.562649,49.5845741 179.066639,49.5845741 L177.077931,49.5845741 L178.472538,40.4871044 C178.557672,39.9372712 179.017641,39.5324628 179.558457,39.5324628 L180.470433,39.5324628 C182.849901,39.5324628 185.098298,39.5324628 186.25649,40.9284843 C186.949812,41.7639533 187.159891,43.0017086 186.897752,44.7123708 M185.376362,32 L172.191601,32 C171.290037,32 170.522605,32.6759417 170.382348,33.5927508 L165.050748,68.3968147 C164.945402,69.0841063 165.461106,69.7045602 166.136667,69.7045602 L172.90146,69.7045602 C173.53231,69.7045602 174.069451,69.2316532 174.168059,68.5903913 L175.679649,58.723029 C175.819906,57.80622 176.587338,57.1309088 177.489514,57.1309088 L181.661085,57.1309088 C190.345377,57.1309088 195.357877,52.8047555 196.66735,44.2287446 C197.257163,40.4782768 196.691236,37.5311203 194.985492,35.4673542 C193.110704,33.1999227 189.787411,32 185.376362,32"/>
</svg>
