<svg xmlns="http://www.w3.org/2000/svg" width="310" height="110" viewBox="0 0 310 110">
  <path fill="#F7F7EF" fill-rule="evenodd" d="M70.2453835,42.8740726 L70.2453835,54.9111675 C70.2453835,55.4660289 69.7994127,55.918977 69.2530984,55.918977 L65.283958,55.918977 C64.7320691,55.918977 64.2916729,55.4660289 64.2916729,54.9111675 L64.2916729,42.8740726 C64.2916729,42.3135494 64.7320691,41.8662632 65.283958,41.8662632 L69.2530984,41.8662632 C69.7994127,41.8662632 70.2453835,42.3135494 70.2453835,42.8740726 L70.2453835,42.8740726 Z M84.8119058,42.8117923 L84.8119058,46.1692698 C84.8119058,46.729793 84.365935,47.1770793 83.8140461,47.1770793 L79.8449057,47.1770793 C79.2985914,47.1770793 78.8526206,46.729793 78.8526206,46.1692698 L78.8526206,42.8117923 C78.8526206,42.251269 79.2985914,41.8039828 79.8449057,41.8039828 L83.8140461,41.8039828 C84.365935,41.8039828 84.8119058,42.251269 84.8119058,42.8117923 L84.8119058,42.8117923 Z M77.5258573,42.8117923 L77.5258573,50.5402187 C77.5258573,51.09508 77.0854612,51.5480281 76.5335722,51.5480281 L72.5644318,51.5480281 C72.0181176,51.5480281 71.5721467,51.09508 71.5721467,50.5402187 L71.5721467,42.8117923 C71.5721467,42.251269 72.0181176,41.8039828 72.5644318,41.8039828 L76.5335722,41.8039828 C77.0854612,41.8039828 77.5258573,42.251269 77.5258573,42.8117923 L77.5258573,42.8117923 Z M84.8119058,49.5324092 L84.8119058,61.5695041 C84.8119058,62.1243655 84.365935,62.5773135 83.8140461,62.5773135 L79.8449057,62.5773135 C79.2985914,62.5773135 78.8526206,62.1243655 78.8526206,61.5695041 L78.8526206,49.5324092 C78.8526206,48.9775478 79.2985914,48.5245998 79.8449057,48.5245998 L83.8140461,48.5245998 C84.365935,48.5245998 84.8119058,48.9775478 84.8119058,49.5324092 L84.8119058,49.5324092 Z M70.2453835,58.2743069 L70.2453835,61.6317845 C70.2453835,62.1923077 69.7994127,62.6395939 69.2530984,62.6395939 L65.283958,62.6395939 C64.7320691,62.6395939 64.2916729,62.1923077 64.2916729,61.6317845 L64.2916729,58.2743069 C64.2916729,57.7137837 64.7320691,57.2608356 65.283958,57.2608356 L69.2530984,57.2608356 C69.7994127,57.2608356 70.2453835,57.7137837 70.2453835,58.2743069 L70.2453835,58.2743069 Z M77.5258573,53.9033581 L77.5258573,68.9921906 C77.5258573,69.5527138 77.0854612,70 76.5335722,70 L72.5644318,70 C72.0181176,70 71.5721467,69.5527138 71.5721467,68.9921906 L71.5721467,53.9033581 C71.5721467,53.3484967 72.0181176,52.8955486 72.5644318,52.8955486 L76.5335722,52.8955486 C77.0854612,52.8955486 77.5258573,53.3484967 77.5258573,53.9033581 L77.5258573,53.9033581 Z M267.481559,53.7108551 C267.130357,53.0031238 266.650938,52.3973057 266.026579,51.8877392 C265.407795,51.3781726 264.671943,50.9365482 263.819023,50.5685279 C262.966104,50.1948458 262.03514,49.8381492 261.020556,49.4984381 C260.495983,49.3229207 260.039421,49.1643889 259.643622,49.0115189 C259.247822,48.8643108 258.912787,48.7001171 258.645762,48.5302616 C258.383754,48.3660679 258.183067,48.1792269 258.049276,47.9810621 C257.915485,47.7828973 257.848031,47.5450996 257.848031,47.2789926 C257.848031,47.0072237 257.90991,46.7750879 258.031994,46.5882468 C258.155194,46.3957439 258.322433,46.2428739 258.534269,46.1296369 C258.740531,46.010738 258.985815,45.9258102 259.264546,45.8748536 C259.537703,45.8182351 259.833159,45.7955877 260.150913,45.7955877 C260.457518,45.7955877 260.752974,45.8408825 261.053447,45.9314721 C261.343885,46.0220617 261.628192,46.1409606 261.895774,46.2825068 C262.163357,46.4240531 262.414215,46.5769231 262.64835,46.7524405 C262.87691,46.9279578 263.093763,47.0978134 263.283301,47.262007 L263.412075,47.375244 C263.545866,47.4941429 263.668508,47.5903944 263.774426,47.6696603 C263.885362,47.7432643 264.008561,47.7828973 264.142352,47.7828973 C264.303459,47.7828973 264.465681,47.7036314 264.626788,47.5394377 L266.818177,45.1671222 C266.940819,45.0368996 267.030013,44.9123389 267.096909,44.8047638 C267.157673,44.7028504 267.185546,44.5839516 267.185546,44.4593909 C267.185546,44.3348301 267.124782,44.1819602 266.996008,44.0064428 C266.868349,43.8309254 266.689961,43.6497462 266.47255,43.4572433 C266.254582,43.2590785 265.998706,43.0609137 265.708825,42.8514252 C265.413369,42.6419367 265.106764,42.443772 264.783435,42.251269 C264.014136,41.8153065 263.228112,41.4982429 262.430939,41.3000781 C261.633766,41.1019133 260.803146,41 259.933503,41 C258.779553,41 257.737096,41.1415463 256.800557,41.4303007 C255.869036,41.7133932 255.07242,42.1153846 254.408481,42.6419367 C253.745657,43.162827 253.232791,43.7912925 252.875457,44.5273331 C252.519237,45.2633737 252.340849,46.0786802 252.340849,46.9789145 C252.340849,47.833854 252.48579,48.6038657 252.770096,49.2946115 C253.054402,49.9853573 253.483649,50.6194846 254.057279,51.1969934 C254.632024,51.7745021 255.345578,52.2953924 256.204071,52.765326 C257.062565,53.2352597 258.060425,53.6712222 259.203225,54.0788754 C259.465233,54.1638032 259.766264,54.2713784 260.122483,54.4072628 C260.474242,54.5374854 260.814295,54.6903553 261.137624,54.8771964 C261.460953,55.0583756 261.73411,55.273526 261.957095,55.5056619 C262.185655,55.7434596 262.297148,56.0152284 262.297148,56.3153065 C262.297148,56.5870754 262.252551,56.8418586 262.174506,57.0853182 C262.090886,57.323116 261.957095,57.5382663 261.767558,57.7194455 C261.57802,57.9062866 261.316012,58.0534947 260.987109,58.1667317 C260.658205,58.2743069 260.251257,58.3309254 259.766264,58.3309254 C259.236673,58.3309254 258.740531,58.2403358 258.261112,58.0534947 C257.787268,57.8723155 257.302275,57.6118704 256.817281,57.283483 C256.493953,57.0626708 256.204071,56.8361968 255.953213,56.6097228 C255.69678,56.3832487 255.490518,56.2020695 255.328854,56.0661851 C255.195062,55.9472862 255.08357,55.8623585 254.988801,55.8057399 C254.888458,55.7434596 254.799263,55.7151503 254.715644,55.7151503 C254.592444,55.7151503 254.431337,55.7887544 254.230651,55.9359625 L251.755512,58.3309254 C251.532527,58.534752 251.426609,58.7215931 251.426609,58.8857868 C251.426609,59.0273331 251.532527,59.2254979 251.755512,59.4689574 C251.76053,59.4802811 251.772236,59.485943 251.783386,59.4916048 C251.794535,59.4972667 251.80011,59.5085904 251.811259,59.5255759 C251.822408,59.5368996 251.827425,59.5425615 251.839132,59.5482234 C251.850281,59.5538852 251.86143,59.5652089 251.867005,59.5821945 L251.911602,59.6274893 C252.062117,59.7916829 252.273396,60.0124951 252.535961,60.284264 C252.797969,60.5560328 253.115723,60.8334635 253.499816,61.116556 C254.414614,61.7846544 255.401324,62.3168684 256.460505,62.7188598 C257.519128,63.1151894 258.59559,63.3133542 259.693793,63.3133542 C260.853317,63.3133542 261.940371,63.1491605 262.954397,62.8151113 C263.963964,62.4810621 264.844756,62.0054666 265.591758,61.3939867 C266.338759,60.7881687 266.92967,60.0464662 267.358917,59.180203 C267.787606,58.3139399 268,57.3457634 268,56.2813354 C268,55.273526 267.827186,54.4185865 267.481559,53.7108551 L267.481559,53.7108551 Z M249.553531,41.6228036 C249.41974,41.5208903 249.26365,41.4642718 249.096411,41.4642718 L233.704843,41.4642718 C233.515305,41.4642718 233.353641,41.5208903 233.224867,41.6397891 C233.097208,41.7530262 233.030312,41.911558 233.030312,42.1040609 L233.030312,45.7106599 C233.030312,45.9484576 233.097208,46.1352987 233.224867,46.2598594 C233.353641,46.3844201 233.515305,46.4467005 233.704843,46.4467005 L238.621671,46.4467005 L238.621671,62.3565014 C238.621671,62.5490043 238.694142,62.713198 238.839082,62.8434205 C238.978448,62.9736431 239.134538,63.0359235 239.296202,63.0359235 L243.488328,63.0359235 C243.689015,63.0359235 243.850679,62.9679813 243.973321,62.826435 C244.095406,62.6848887 244.157284,62.5263569 244.157284,62.3565014 L244.157284,46.4467005 L249.096411,46.4467005 C249.313822,46.4467005 249.481061,46.3674346 249.603703,46.2089028 C249.72077,46.0503709 249.782091,45.8805154 249.782091,45.7106599 L249.782091,42.1040609 C249.759793,41.8889106 249.687323,41.7303788 249.553531,41.6228036 L249.553531,41.6228036 Z M221.574436,54.8885201 C221.758399,54.3959391 221.942362,53.8637251 222.126325,53.29754 C222.309731,52.7313549 222.493694,52.159508 222.677657,51.5763374 C222.856602,50.9931667 223.040565,50.4213198 223.224528,49.8494729 C223.414066,49.2776259 223.598029,48.7454119 223.776417,48.2471691 L225.967249,54.8885201 L221.574436,54.8885201 Z M234.145239,62.3848106 L226.636205,42.7155408 L226.279429,41.8889106 C226.223682,41.8096447 226.140063,41.7190551 226.022438,41.6171417 C225.911503,41.5152284 225.772137,41.4642718 225.610472,41.4642718 L221.947937,41.4642718 C221.869892,41.4642718 221.791847,41.4812573 221.702095,41.5152284 C221.619033,41.5491995 221.535414,41.5944943 221.462944,41.6567747 C221.384899,41.7133932 221.318003,41.7756736 221.267831,41.8436158 C221.21766,41.911558 221.184212,41.9738383 221.173063,42.0304569 L213.407595,62.4584147 C213.329551,62.6509176 213.351849,62.7981257 213.474491,62.8943772 C213.591558,62.9906287 213.742074,63.0359235 213.919904,63.0359235 L218.140461,63.0359235 C218.502812,63.0359235 218.748096,62.8604061 218.870181,62.4980476 C219.054144,62.0054666 219.238664,61.5128856 219.422627,61.0259664 C219.60659,60.5390472 219.790553,60.0464662 219.974516,59.5538852 L227.567169,59.5538852 C227.751132,60.0464662 227.928963,60.5390472 228.112926,61.0259664 C228.291872,61.5128856 228.475835,62.0054666 228.67039,62.4980476 C228.737843,62.6962124 228.827037,62.8320968 228.949121,62.9170246 C229.066746,62.9962905 229.233985,63.0359235 229.456971,63.0359235 L233.559902,63.0359235 C233.816336,63.0359235 234.000299,62.979305 234.105659,62.8547442 C234.212135,62.7358454 234.223284,62.5773135 234.145239,62.3848106 L234.145239,62.3848106 Z M214.210343,41.6228036 C214.076552,41.5208903 213.919904,41.4642718 213.753223,41.4642718 L198.361654,41.4642718 C198.171559,41.4642718 198.009895,41.5208903 197.882236,41.6397891 C197.753462,41.7530262 197.686566,41.911558 197.686566,42.1040609 L197.686566,45.7106599 C197.686566,45.9484576 197.753462,46.1352987 197.882236,46.2598594 C198.009895,46.3844201 198.171559,46.4467005 198.361654,46.4467005 L203.278483,46.4467005 L203.278483,62.3565014 C203.278483,62.5490043 203.350953,62.713198 203.495336,62.8434205 C203.634702,62.9736431 203.791349,63.0359235 203.953014,63.0359235 L208.14514,63.0359235 C208.345269,63.0359235 208.507491,62.9679813 208.630133,62.826435 C208.752775,62.6848887 208.814096,62.5263569 208.814096,62.3565014 L208.814096,46.4467005 L213.753223,46.4467005 C213.970634,46.4467005 214.137873,46.3674346 214.260515,46.2089028 C214.377582,46.0503709 214.438903,45.8805154 214.438903,45.7106599 L214.438903,42.1040609 C214.416604,41.8889106 214.344134,41.7303788 214.210343,41.6228036 L214.210343,41.6228036 Z M194.905381,53.7108551 C194.559753,53.0031238 194.07476,52.3973057 193.455975,51.8877392 C192.837191,51.3781726 192.101339,50.9365482 191.242845,50.5685279 C190.389926,50.1948458 189.458962,49.8381492 188.449953,49.4984381 C187.925937,49.3229207 187.463242,49.1643889 187.067443,49.0115189 C186.671644,48.8643108 186.342741,48.7001171 186.075158,48.5302616 C185.807576,48.3660679 185.606331,48.1792269 185.473097,47.9810621 C185.339306,47.7828973 185.272411,47.5450996 185.272411,47.2789926 C185.272411,47.0072237 185.333732,46.7750879 185.461948,46.5882468 C185.584033,46.3957439 185.751829,46.2428739 185.958091,46.1296369 C186.169927,46.010738 186.415211,45.9258102 186.688368,45.8748536 C186.9671,45.8182351 187.262555,45.7955877 187.574735,45.7955877 C187.88134,45.7955877 188.18237,45.8408825 188.477826,45.9314721 C188.773282,46.0220617 189.052013,46.1409606 189.319596,46.2825068 C189.587178,46.4240531 189.838037,46.5769231 190.072172,46.7524405 C190.306306,46.9279578 190.518142,47.0978134 190.70768,47.262007 L190.835897,47.375244 C190.969688,47.4941429 191.09233,47.5903944 191.203265,47.6696603 C191.309741,47.7432643 191.432383,47.7828973 191.566174,47.7828973 C191.727838,47.7828973 191.889503,47.7036314 192.051167,47.5394377 L194.241999,45.1671222 C194.364641,45.0368996 194.45941,44.9123389 194.520731,44.8047638 C194.582052,44.7028504 194.615499,44.5839516 194.615499,44.4593909 C194.615499,44.3348301 194.548046,44.1819602 194.420387,44.0064428 C194.292171,43.8309254 194.119357,43.6497462 193.896372,43.4572433 C193.678961,43.2590785 193.422527,43.0609137 193.132089,42.8514252 C192.842765,42.6419367 192.53616,42.443772 192.212832,42.251269 C191.437957,41.8153065 190.651934,41.4982429 189.860335,41.3000781 C189.063163,41.1019133 188.226967,41 187.362899,41 C186.208949,41 185.165935,41.1415463 184.229954,41.4303007 C183.293415,41.7133932 182.495685,42.1153846 181.83286,42.6419367 C181.168921,43.162827 180.662187,43.7912925 180.30541,44.5273331 C179.943059,45.2633737 179.764671,46.0786802 179.764671,46.9789145 C179.764671,47.833854 179.909611,48.6038657 180.19336,49.2946115 C180.483799,49.9853573 180.913046,50.6194846 181.481658,51.1969934 C182.055846,51.7745021 182.769399,52.2953924 183.627893,52.765326 C184.486387,53.2352597 185.489264,53.6712222 186.632622,54.0788754 C186.889055,54.1638032 187.19566,54.2713784 187.546862,54.4072628 C187.898064,54.5374854 188.238117,54.6903553 188.561445,54.8771964 C188.884774,55.0583756 189.163506,55.273526 189.386491,55.5056619 C189.609477,55.7434596 189.72097,56.0152284 189.72097,56.3153065 C189.72097,56.5870754 189.681947,56.8418586 189.598328,57.0853182 C189.520283,57.323116 189.380917,57.5382663 189.191379,57.7194455 C189.001842,57.9062866 188.739834,58.0534947 188.41093,58.1667317 C188.082027,58.2743069 187.674521,58.3309254 187.190085,58.3309254 C186.666069,58.3309254 186.163795,58.2403358 185.690508,58.0534947 C185.210532,57.8723155 184.731671,57.6118704 184.246678,57.283483 C183.917774,57.0626708 183.63291,56.8361968 183.376477,56.6097228 C183.126176,56.3832487 182.919914,56.2020695 182.75825,56.0661851 C182.624459,55.9472862 182.507391,55.8623585 182.412623,55.8057399 C182.317854,55.7434596 182.22866,55.7151503 182.139465,55.7151503 C182.016823,55.7151503 181.855159,55.7887544 181.654472,55.9359625 L179.179334,58.3309254 C178.961923,58.534752 178.850431,58.7215931 178.850431,58.8857868 C178.850431,59.0273331 178.961923,59.2254979 179.179334,59.4689574 C179.190483,59.4802811 179.201633,59.485943 179.207207,59.4916048 C179.217799,59.4972667 179.229506,59.5085904 179.23508,59.5255759 C179.24623,59.5368996 179.257379,59.5425615 179.268528,59.5482234 C179.274103,59.5538852 179.285252,59.5652089 179.296401,59.5821945 L179.334866,59.6274893 C179.491514,59.7916829 179.697775,60.0124951 179.959783,60.284264 C180.221791,60.5560328 180.544562,60.8334635 180.924195,61.116556 C181.838435,61.7846544 182.83072,62.3168684 183.884326,62.7188598 C184.943507,63.1151894 186.019412,63.3133542 187.117057,63.3133542 C188.282714,63.3133542 189.36921,63.1491605 190.378777,62.8151113 C191.387786,62.4810621 192.268578,62.0054666 193.021154,61.3939867 C193.768155,60.7881687 194.353492,60.0464662 194.782739,59.180203 C195.211985,58.3139399 195.429396,57.3457634 195.429396,56.2813354 C195.429396,55.273526 195.256583,54.4185865 194.905381,53.7108551 L194.905381,53.7108551 Z M166.953601,58.0534947 L157.337355,58.0534947 L157.337355,54.3336587 L164.506894,54.3336587 C164.707581,54.3336587 164.858096,54.2713784 164.964014,54.1468176 C165.069932,54.0222569 165.119546,53.8920344 165.119546,53.7561499 L165.119546,50.6194846 C165.119546,50.4156579 165.058783,50.2684498 164.941715,50.1835221 C164.824648,50.0929324 164.674133,50.0532995 164.49017,50.0532995 L157.337355,50.0532995 L157.337355,46.4467005 L166.607974,46.4467005 C166.825942,46.4467005 166.993181,46.3730964 167.110248,46.2258883 C167.221741,46.0730184 167.283062,45.9144865 167.283062,45.7502929 L167.283062,42.1606794 C167.283062,41.9455291 167.221741,41.7813354 167.110248,41.6511128 C166.993181,41.5265521 166.831517,41.4642718 166.61968,41.4642718 L152.432233,41.4642718 C152.231546,41.4642718 152.075457,41.5265521 151.969539,41.645451 C151.858046,41.7700117 151.8023,41.9285435 151.8023,42.1323702 L151.8023,62.4131199 C151.8023,62.6282702 151.863621,62.7811402 151.975113,62.8830535 C152.092181,62.9849668 152.242696,63.0359235 152.432233,63.0359235 L166.892838,63.0359235 C167.249614,63.0359235 167.444169,62.900039 167.478174,62.6339321 C167.556219,62.5546661 167.595242,62.4697384 167.595242,62.3734869 L167.595242,58.7215931 C167.595242,58.2743069 167.383406,58.0534947 166.953601,58.0534947 L166.953601,58.0534947 Z M142.765816,49.4927763 C142.671047,49.7871925 142.531681,50.0532995 142.347718,50.2910972 C142.16933,50.528895 141.946344,50.7270597 141.678762,50.8855916 C141.411179,51.0441234 141.110149,51.1460367 140.775671,51.1856697 C140.614006,51.2026552 140.469066,51.2196408 140.335275,51.2253026 C140.201483,51.2366263 140.045393,51.2422882 139.878154,51.2422882 L137.241352,51.2422882 L137.241352,45.9088247 L139.220347,45.9088247 C139.493505,45.9088247 139.749938,45.9201484 139.984072,45.9314721 C140.218207,45.9484576 140.469066,45.9654432 140.736648,45.9824287 C141.059977,46.0333854 141.355433,46.1409606 141.623015,46.3051542 C141.885023,46.4693479 142.119158,46.6731745 142.308695,46.9109723 C142.498233,47.1544319 142.648748,47.4205389 142.749092,47.7092932 C142.85501,48.0037095 142.910756,48.2924639 142.910756,48.5812183 C142.910756,48.8926201 142.860584,49.19836 142.765816,49.4927763 L142.765816,49.4927763 Z M149.031706,62.0790707 C148.925788,61.8978914 148.836593,61.7336978 148.775273,61.5978134 L145.096013,54.5714565 C145.60888,54.2657165 146.088298,53.9090199 146.517545,53.4843811 C146.952367,53.0654041 147.325867,52.5954705 147.643622,52.0745802 C147.955801,51.5593518 148.201085,51.0044904 148.379473,50.4043342 C148.557862,49.8098399 148.641481,49.1813745 148.641481,48.5245998 C148.641481,47.5564233 148.457518,46.6448653 148.095167,45.7899258 C147.727241,44.9293245 147.225524,44.1819602 146.584441,43.542171 C145.943358,42.9023819 145.196357,42.3984772 144.337863,42.024795 C143.479369,41.6511128 142.559554,41.4642718 141.578418,41.4642718 L132.335673,41.4642718 C132.129411,41.4642718 131.973321,41.5265521 131.867403,41.645451 C131.761485,41.7700117 131.711314,41.9285435 131.711314,42.1323702 L131.711314,62.4131199 C131.711314,62.6282702 131.76706,62.7811402 131.878553,62.8830535 C131.99562,62.9849668 132.146135,63.0359235 132.335673,63.0359235 L136.58912,63.0359235 C137.023941,63.0359235 137.241352,62.8320968 137.241352,62.4131199 L137.241352,55.8623585 L139.5604,55.8623585 L143.038973,62.4980476 C143.07242,62.6622413 143.15604,62.7981257 143.289831,62.8943772 C143.418048,62.9906287 143.562988,63.0359235 143.724653,63.0359235 L148.630332,63.0359235 C148.803146,63.0359235 148.936937,62.9962905 149.03728,62.9170246 C149.137624,62.8320968 149.187796,62.713198 149.187796,62.560328 C149.187796,62.4244436 149.132049,62.2602499 149.031706,62.0790707 L149.031706,62.0790707 Z M116.263999,54.8885201 C116.442387,54.3959391 116.62635,53.8637251 116.810313,53.29754 C116.999851,52.7313549 117.183814,52.159508 117.362202,51.5763374 C117.546165,50.9931667 117.730128,50.4213198 117.914091,49.8494729 C118.098054,49.2776259 118.282017,48.7454119 118.46598,48.2471691 L120.651237,54.8885201 L116.263999,54.8885201 Z M128.834802,62.3848106 L121.325768,42.7155408 L120.968991,41.8889106 C120.90767,41.8096447 120.824051,41.7190551 120.712558,41.6171417 C120.595491,41.5152284 120.456125,41.4642718 120.29446,41.4642718 L116.631925,41.4642718 C116.559454,41.4642718 116.475835,41.4812573 116.392215,41.5152284 C116.303021,41.5491995 116.224976,41.5944943 116.146931,41.6567747 C116.068887,41.7133932 116.007566,41.7756736 115.951819,41.8436158 C115.901648,41.911558 115.8682,41.9738383 115.862625,42.0304569 L108.097158,62.4584147 C108.019113,62.6509176 108.041412,62.7981257 108.158479,62.8943772 C108.275546,62.9906287 108.426061,63.0359235 108.610024,63.0359235 L112.830023,63.0359235 C113.192375,63.0359235 113.432084,62.8604061 113.560301,62.4980476 C113.738689,62.0054666 113.922652,61.5128856 114.106615,61.0259664 C114.296153,60.5390472 114.480115,60.0464662 114.658504,59.5538852 L122.256732,59.5538852 C122.43512,60.0464662 122.619083,60.5390472 122.797472,61.0259664 C122.981434,61.5128856 123.165397,62.0054666 123.354935,62.4980476 C123.421831,62.6962124 123.516599,62.8320968 123.633667,62.9170246 C123.756309,62.9962905 123.923548,63.0359235 124.140959,63.0359235 L128.249465,63.0359235 C128.505898,63.0359235 128.684286,62.979305 128.790205,62.8547442 C128.896123,62.7358454 128.912847,62.5773135 128.834802,62.3848106 L128.834802,62.3848106 Z M106.218506,41.6624365 C106.095864,41.532214 105.92305,41.4642718 105.705639,41.4642718 L101.530237,41.4642718 C101.329551,41.4642718 101.167886,41.5265521 101.050819,41.6567747 C100.933751,41.7813354 100.87243,41.9285435 100.87243,42.1040609 L100.87243,54.435572 C100.87243,55.0753612 100.777662,55.6415463 100.593699,56.1341273 C100.404161,56.6323702 100.153302,57.0456853 99.8299736,57.3797345 C99.5122194,57.7137837 99.1387188,57.9629051 98.7150465,58.1327606 C98.2913742,58.3026162 97.8398288,58.3875439 97.3604101,58.3875439 C96.90329,58.3875439 96.4573192,58.3139399 96.0336469,58.1723936 C95.6099746,58.0251855 95.236474,57.7930496 94.9187198,57.4816478 C94.595391,57.1645841 94.3389577,56.7569309 94.1438455,56.258688 C93.9487333,55.7604451 93.8483898,55.1489652 93.8483898,54.435572 L93.8483898,42.1040609 C93.8483898,41.9228817 93.7703449,41.7700117 93.6142551,41.645451 C93.4581653,41.5265521 93.3076502,41.4642718 93.1627097,41.4642718 L88.8813897,41.4642718 C88.7197253,41.4642718 88.585934,41.532214 88.4800159,41.6624365 C88.3685232,41.7926591 88.3127769,41.9398672 88.3127769,42.1040609 L88.3127769,54.3506443 C88.3127769,56.0152284 88.5580608,57.4250293 89.0486287,58.5687232 C89.5391967,59.7180789 90.2025783,60.6466224 91.0331989,61.3600156 C91.858245,62.0734088 92.8226569,62.5829754 93.9208601,62.900039 C95.0190633,63.2171027 96.1674382,63.3699727 97.3659848,63.3699727 C98.570106,63.3699727 99.7129063,63.2171027 100.805535,62.9170246 C101.898163,62.6112847 102.862575,62.1073799 103.687621,61.4053104 C104.518242,60.7032409 105.181624,59.7746974 105.672192,58.6196798 C106.162759,57.4703241 106.408043,56.0435377 106.408043,54.3506443 L106.408043,42.1040609 C106.408043,41.9398672 106.346722,41.7926591 106.218506,41.6624365 L106.218506,41.6624365 Z M60.05495,53.7108551 C59.7093226,53.0031238 59.2243293,52.3973057 58.6055448,51.8877392 C57.9867602,51.3781726 57.2509084,50.9365482 56.3979891,50.5685279 C55.5450699,50.1948458 54.6085312,49.8381492 53.5995222,49.4984381 C53.0755064,49.3229207 52.6128117,49.1643889 52.2225872,49.0115189 C51.8267881,48.8643108 51.49231,48.7001171 51.2247275,48.5302616 C50.957145,48.3660679 50.7564581,48.1792269 50.6226669,47.9810621 C50.4888756,47.7828973 50.42198,47.5450996 50.42198,47.2789926 C50.42198,47.0072237 50.4888756,46.7750879 50.6115176,46.5882468 C50.7341596,46.3957439 50.9013986,46.2428739 51.1132348,46.1296369 C51.3194963,46.010738 51.5647802,45.9258102 51.8379374,45.8748536 C52.1166692,45.8182351 52.4121248,45.7955877 52.7298791,45.7955877 C53.0309094,45.7955877 53.3319397,45.8408825 53.6273954,45.9314721 C53.922851,46.0220617 54.2071574,46.1409606 54.4747399,46.2825068 C54.7367478,46.4240531 54.9876064,46.5769231 55.2217411,46.7524405 C55.4558758,46.9279578 55.6677119,47.0978134 55.8572495,47.262007 L55.9910408,47.375244 C56.124832,47.4941429 56.2418994,47.5903944 56.3533921,47.6696603 C56.4648848,47.7432643 56.5819521,47.7828973 56.7157434,47.7828973 C56.8774078,47.7828973 57.0446469,47.7036314 57.2063113,47.5394377 L59.3915684,45.1671222 C59.5142103,45.0368996 59.6089791,44.9123389 59.6703001,44.8047638 C59.7316211,44.7028504 59.7650689,44.5839516 59.7650689,44.4593909 C59.7650689,44.3348301 59.6981733,44.1819602 59.5699567,44.0064428 C59.4417401,43.8309254 59.2689264,43.6497462 59.0515156,43.4572433 C58.8285302,43.2590785 58.5776716,43.0609137 58.2822159,42.8514252 C57.9923349,42.6419367 57.6857299,42.443772 57.3624011,42.251269 C56.5875268,41.8153065 55.8070778,41.4982429 55.0099049,41.3000781 C54.2127321,41.1019133 53.3821114,41 52.5124683,41 C51.3585187,41 50.3160619,41.1415463 49.3795232,41.4303007 C48.4485591,41.7133932 47.6458116,42.1153846 46.9824299,42.6419367 C46.324623,43.162827 45.8117565,43.7912925 45.4549798,44.5273331 C45.0982032,45.2633737 44.9198148,46.0786802 44.9198148,46.9789145 C44.9198148,47.833854 45.0591807,48.6038657 45.3490618,49.2946115 C45.6333682,49.9853573 46.0626151,50.6194846 46.6368025,51.1969934 C47.2054154,51.7745021 47.9189687,52.2953924 48.7774625,52.765326 C49.6359564,53.2352597 50.6393908,53.6712222 51.782191,54.0788754 C52.0386243,54.1638032 52.3452292,54.2713784 52.6964312,54.4072628 C53.0532079,54.5374854 53.387686,54.6903553 53.7165895,54.8771964 C54.0399184,55.0583756 54.3130755,55.273526 54.5360609,55.5056619 C54.7590463,55.7434596 54.870539,56.0152284 54.870539,56.3153065 C54.870539,56.5870754 54.8315166,56.8418586 54.7534717,57.0853182 C54.6698522,57.323116 54.5360609,57.5382663 54.3409487,57.7194455 C54.1514111,57.9062866 53.8949779,58.0534947 53.5660744,58.1667317 C53.2371709,58.2743069 52.8302225,58.3309254 52.3396546,58.3309254 C51.8156388,58.3309254 51.3139217,58.2403358 50.8400776,58.0534947 C50.360659,57.8723155 49.8812404,57.6118704 49.3962471,57.283483 C49.0729182,57.0626708 48.7830372,56.8361968 48.5321786,56.6097228 C48.2757454,56.3832487 48.0694838,56.2020695 47.9078194,56.0661851 C47.7740282,55.9472862 47.6569608,55.8623585 47.562192,55.8057399 C47.4674232,55.7434596 47.3782291,55.7151503 47.2946095,55.7151503 C47.1663929,55.7151503 47.0047285,55.7887544 46.8040416,55.9359625 L44.3289035,58.3309254 C44.1114927,58.534752 44,58.7215931 44,58.8857868 C44,59.0273331 44.1114927,59.2254979 44.3289035,59.4689574 C44.3400528,59.4802811 44.351202,59.485943 44.3623513,59.4916048 C44.3679259,59.4972667 44.3790752,59.5085904 44.3902245,59.5255759 C44.3957991,59.5368996 44.4069484,59.5425615 44.4180977,59.5482234 C44.4292469,59.5538852 44.4348216,59.5652089 44.4459708,59.5821945 L44.4905679,59.6274893 C44.6410831,59.7916829 44.8473446,60.0124951 45.1093524,60.284264 C45.3713603,60.5560328 45.6946892,60.8334635 46.0737644,61.116556 C46.9935792,61.7846544 47.9802897,62.3168684 49.0394704,62.7188598 C50.0930765,63.1151894 51.1745558,63.3133542 52.2727589,63.3133542 C53.4322831,63.3133542 54.519337,63.1491605 55.528346,62.8151113 C56.5429297,62.4810621 57.4237221,62.0054666 58.1707232,61.3939867 C58.9177244,60.7881687 59.5086357,60.0464662 59.9378826,59.180203 C60.3671296,58.3139399 60.5789657,57.3457634 60.5789657,56.2813354 C60.5789657,55.273526 60.406152,54.4185865 60.05495,53.7108551 L60.05495,53.7108551 Z"/>
</svg>
