<svg xmlns="http://www.w3.org/2000/svg" width="310" height="110" viewBox="0 0 310 110">
  <path fill="#F7F7EF" fill-rule="evenodd" d="M61.7386159,73.7241663 C60.3866387,73.7241663 59.0359987,73.9821038 57.6826843,74.5020729 C57.1678364,74.7013261 56.8241587,75.2035535 56.8241587,75.7658298 L56.8241587,79.603502 C56.8241587,80.0948114 57.0902749,80.5438136 57.5101768,80.785374 C58.9196565,81.5960345 60.3291362,82 61.7386159,82 C63.1494328,82 64.5575753,81.5960345 65.9670549,80.785374 C66.3882941,80.5438136 66.653073,80.0948114 66.653073,79.603502 L66.653073,75.7658298 C66.653073,75.2035535 66.3093954,74.7013261 65.7945475,74.5020729 C64.4425703,73.9821038 63.0919303,73.7241663 61.7386159,73.7241663 L61.7386159,73.7241663 Z M61.7386159,76.1356766 C62.579757,76.1356766 63.435608,76.2666924 64.2901218,76.5287241 L64.2901218,78.9593408 C63.4182235,79.3824128 62.579757,79.5898545 61.7386159,79.5898545 C60.898812,79.5898545 60.0590082,79.3824128 59.1884472,78.9593408 L59.1884472,76.5287241 C60.042961,76.2666924 60.898812,76.1356766 61.7386159,76.1356766 L61.7386159,76.1356766 Z M61.7386159,43.4717909 C59.1055366,43.4717909 57.8939725,44.1336938 57.6492526,44.3902665 C57.4901178,44.5567658 57.1892327,45.162714 57.1905655,46.2722544 L57.1905655,46.437389 C57.3082495,46.8522724 57.7629203,48.1542423 59.2566478,50.5589288 C59.9747604,51.7176001 60.8159015,52.9417793 61.7519885,54.1987125 C64.7969461,50.0949144 66.0192084,47.3053689 66.2880035,46.4032702 L66.2880035,46.2627012 C66.2893364,45.1613493 65.9884512,44.5567658 65.8293164,44.3902665 C65.5832592,44.1336938 64.3730324,43.4717909 61.7386159,43.4717909 L61.7386159,43.4717909 Z M61.7386159,45.8833011 C62.7723235,45.8833011 63.4610161,46.0020342 63.8795808,46.1112141 C63.5880565,46.8290717 62.9274465,48.1842668 61.7412904,50.037595 C61.5714575,49.776928 61.4096481,49.5217201 61.2531879,49.2692417 C60.2475629,47.6492854 59.7821939,46.6202652 59.5842783,46.1153084 C59.9988312,46.003399 60.6915356,45.8833011 61.7386159,45.8833011 L61.7386159,45.8833011 Z M61.7386159,38.6474057 C58.3860869,38.6474057 55.7329486,39.4894554 54.268641,41.0179735 C53.1025439,42.2366937 52.4619929,44.1009399 52.4619929,46.2722544 L52.4619929,46.4851551 L52.4539693,46.6980559 C52.4512948,46.7717523 52.4098395,48.5418308 55.2622305,53.1396678 C56.8616022,55.7190421 59.0092534,58.587743 61.4176717,61.380018 C61.5246531,61.3772885 61.6316345,61.3759238 61.7386159,61.3759238 C61.8522836,61.3759238 61.964614,61.3772885 62.0769445,61.380018 C68.7298491,53.7319686 71.0219252,48.1501481 71.0232624,46.6980559 L71.0152388,46.4851551 L71.0152388,46.2667954 C71.0165761,44.1009399 70.3760251,42.2366937 69.2085908,41.0179735 C67.7442831,39.4894554 65.0924822,38.6474057 61.7386159,38.6474057 L61.7386159,38.6474057 Z M61.7386159,41.0589159 C64.3716951,41.0589159 66.532719,41.6744174 67.518285,42.7048024 C68.239072,43.4567787 68.6536249,44.7546543 68.6522876,46.2667954 L68.6522876,46.4851551 L68.6522876,46.5356508 L68.6536249,46.5875113 L68.6576367,46.6762199 C68.5319335,47.5182696 66.9994253,51.6630102 61.7533258,58.0691387 C60.002843,55.9237543 58.4703347,53.800206 57.2587706,51.8499807 C55.1860063,48.5077121 54.8623876,46.9491696 54.8195951,46.6830436 L54.8236069,46.5902408 L54.8262814,46.5370156 L54.8262814,46.4851551 L54.8262814,46.2695249 C54.8249442,44.7560191 55.2381597,43.4567787 55.9602841,42.7048024 C56.94585,41.6744174 59.1055366,41.0589159 61.7386159,41.0589159 L61.7386159,41.0589159 Z M61.7386159,33.8243852 C57.0354469,33.8243852 53.2844123,35.1454616 50.8893666,37.6456804 C48.8527086,39.773323 47.7320786,42.8358182 47.7360904,46.2722544 L47.7360904,46.3800695 L47.7307414,46.4878846 C47.5301513,51.1853483 53.4462216,59.7737093 59.4853205,66.3872795 C60.2355275,66.2630874 60.9870717,66.200309 61.7386159,66.200309 C62.4901601,66.200309 63.2457161,66.2630874 63.995923,66.3872795 C72.2575601,57.4031415 75.8909153,49.8519892 75.7464904,46.4878846 L75.7424786,46.3800695 L75.7424786,46.2722544 C75.7451531,42.8358182 74.6258604,39.773323 72.5892024,37.6456804 C70.1941567,35.1454616 66.4431221,33.8243852 61.7386159,33.8243852 L61.7386159,33.8243852 Z M61.7386159,36.2358955 C65.7905357,36.2358955 68.9585218,37.3058581 70.8988966,39.3325093 C72.5009428,41.004326 73.3808646,43.4676967 73.3781901,46.2722544 L73.3781901,46.3800695 L73.3781901,46.43193 L73.3808646,46.4851551 L73.3848764,46.5929703 C73.4771479,48.7560963 70.7397618,55.2809579 63.0825695,63.8461182 C62.6332477,63.8065405 62.1852631,63.7887988 61.7386159,63.7887988 C61.2973177,63.7887988 60.8520077,63.8065405 60.4066977,63.8447534 C54.248582,56.9077379 49.9559541,49.7619158 50.0923553,46.5929703 L50.0977044,46.4851551 L50.0990417,46.43193 L50.0990417,46.3800695 L50.0990417,46.2695249 C50.0963671,43.4676967 50.9776263,41.004326 52.5783352,39.3325093 C54.5200472,37.3058581 57.6866961,36.2358955 61.7386159,36.2358955 L61.7386159,36.2358955 Z M61.7386159,29 C48.7724725,29 43.0008271,37.3072229 43.0088507,46.2763487 C42.625055,55.2468392 54.8369796,68.4753444 57.5115141,71.2594309 C57.7254768,71.4832496 58.0170011,71.606077 58.3125372,71.606077 C58.4275421,71.606077 58.5438844,71.5883353 58.6575521,71.5487576 C59.6845734,71.1980173 60.7115946,71.0233295 61.7386159,71.0233295 C62.7669744,71.0233295 63.7926584,71.1980173 64.8210169,71.5487576 C64.9333474,71.5883353 65.0496896,71.606077 65.1660319,71.606077 C65.4615679,71.606077 65.7517549,71.4832496 65.9657177,71.2594309 C68.6402522,68.4753444 80.8535141,55.2468392 80.4683811,46.2763487 C80.477742,37.3072229 74.7047592,29 61.7386159,29 L61.7386159,29 Z M61.7386159,31.4115102 C67.093034,31.4115102 71.4297917,32.9837003 74.2795082,35.9602163 C76.7507781,38.5409553 78.1081044,42.202575 78.1054298,46.2736192 L78.1040926,46.3282091 L78.1067671,46.3814343 C78.2458429,49.5858633 76.2854091,54.1877945 72.4407657,59.6877301 C69.5723275,63.7901635 66.4244003,67.2948371 64.7969461,69.0267027 C63.7819602,68.7510236 62.7576135,68.613184 61.7386159,68.613184 C60.7196182,68.613184 59.6952715,68.7510236 58.6802857,69.0267027 C57.0528314,67.2948371 53.9062415,63.7901635 51.036466,59.6877301 C47.1918226,54.1877945 45.2327261,49.5858633 45.3704646,46.3814343 L45.3731392,46.3282091 L45.3731392,46.2736192 C45.3691274,42.202575 46.7264536,38.5409553 49.1990608,35.9602163 C52.0487773,32.9837003 56.3841978,31.4115102 61.7386159,31.4115102 L61.7386159,31.4115102 Z M263.917378,56.7742655 C263.672658,54.8895481 261.97834,54.136207 260.376294,54.136207 C258.775585,54.136207 257.082605,54.9209373 256.775034,56.7742655 L263.917378,56.7742655 Z M251.478118,58.6289584 C251.478118,54.1034531 254.742387,50.0515154 260.346874,50.0515154 C265.149001,50.0515154 268.906722,53.0048307 268.998994,58.2208987 C269.029751,59.195329 268.353093,59.6047534 267.306013,59.6047534 L256.681425,59.6047534 C256.681425,61.0486571 258.314228,62.746404 261.240169,62.746404 C262.162883,62.746404 263.271478,62.5580688 264.41083,61.9289198 C265.334881,61.4580816 266.10381,61.52086 266.72029,62.3383443 L267.15089,62.9033501 C267.798128,63.7194696 267.766033,64.6938998 266.813899,65.354438 C264.996553,66.6127359 262.840878,67.0822093 260.808232,67.0822093 C254.957687,67.0822093 251.478118,63.3127746 251.478118,58.6289584 L251.478118,58.6289584 Z M233.558737,65.0405459 L233.558737,64.7894322 C233.558737,63.9405588 233.774037,63.342799 234.35976,62.7150148 L241.627807,54.732602 L235.529869,54.732602 C234.452031,54.732602 233.867645,54.136207 233.867645,53.0348552 L233.867645,52.0931788 C233.867645,50.9931917 234.452031,50.3967967 235.529869,50.3967967 L247.876857,50.3967967 C248.956032,50.3967967 249.540418,50.9931917 249.540418,52.0931788 L249.540418,52.4070709 C249.540418,53.2545796 249.325118,53.8523394 248.739395,54.4814883 L241.534199,62.4011227 L248.370309,62.4011227 C249.448146,62.4011227 250.033869,62.9975177 250.033869,64.0975048 L250.033869,65.0405459 C250.001775,66.140533 249.417389,66.736928 248.339552,66.736928 L235.22096,66.736928 C234.14446,66.736928 233.558737,66.140533 233.558737,65.0405459 L233.558737,65.0405459 Z M225.307798,65.0405459 L225.307798,52.0931788 C225.307798,50.9931917 225.892184,50.3967967 226.971358,50.3967967 L229.188547,50.3967967 C230.265047,50.3967967 230.850771,50.9931917 230.850771,52.0931788 L230.850771,65.0405459 C230.850771,66.140533 230.265047,66.736928 229.188547,66.736928 L226.971358,66.736928 C225.892184,66.736928 225.307798,66.140533 225.307798,65.0405459 L225.307798,65.0405459 Z M224.907955,46.2165727 C224.907955,44.7085258 225.984455,43.5143711 228.079953,43.5143711 C230.20487,43.5143711 231.281371,44.7085258 231.281371,46.2165727 C231.281371,47.7560088 230.111262,48.920139 228.079953,48.920139 C226.078064,48.920139 224.907955,47.7560088 224.907955,46.2165727 L224.907955,46.2165727 Z M206.156793,65.0405459 L206.156793,52.0931788 C206.156793,50.9931917 206.742516,50.3967967 207.819017,50.3967967 L210.036206,50.3967967 C211.114043,50.3967967 211.699766,50.9931917 211.699766,52.0931788 L211.699766,52.7223278 C212.531546,51.0559701 214.070741,50.0515154 216.349444,50.0515154 C220.968365,50.0515154 222.046203,53.979261 222.046203,57.2464684 L222.046203,65.0405459 C222.046203,66.140533 221.46048,66.736928 220.38398,66.736928 L218.166791,66.736928 C217.087616,66.736928 216.50323,66.140533 216.50323,65.0405459 L216.50323,57.7186713 C216.50323,55.958146 215.948264,54.5442668 214.318135,54.5442668 C212.685332,54.5442668 211.699766,55.9267568 211.699766,58.0953418 L211.699766,65.0405459 C211.699766,66.140533 211.114043,66.736928 210.036206,66.736928 L207.819017,66.736928 C206.742516,66.736928 206.156793,66.140533 206.156793,65.0405459 L206.156793,65.0405459 Z M197.259954,58.56618 C197.259954,56.2420136 195.905303,54.4500991 193.749628,54.4500991 C191.563196,54.4500991 190.270058,56.2720381 190.270058,58.56618 C190.270058,60.8616866 191.563196,62.6836256 193.749628,62.6836256 C195.905303,62.6836256 197.259954,60.8917111 197.259954,58.56618 L197.259954,58.56618 Z M184.728423,58.56618 C184.728423,53.6967581 187.961935,50.0515154 192.333462,50.0515154 C194.427622,50.0515154 196.182117,50.9304133 197.19844,52.5954062 L197.19844,52.0931788 C197.19844,50.9931917 197.782826,50.3967967 198.862,50.3967967 L201.077852,50.3967967 C202.15569,50.3967967 202.740075,50.9931917 202.740075,52.0931788 L202.740075,65.0405459 C202.740075,66.140533 202.15569,66.736928 201.077852,66.736928 L198.862,66.736928 C197.782826,66.736928 197.19844,66.140533 197.19844,65.0405459 L197.19844,64.568343 C196.182117,66.2033114 194.427622,67.0822093 192.333462,67.0822093 C187.961935,67.0822093 184.728423,63.4369667 184.728423,58.56618 L184.728423,58.56618 Z M176.878664,58.56618 C176.878664,56.2420136 175.491918,54.385956 173.368337,54.385956 C171.181905,54.385956 169.827254,56.2720381 169.827254,58.56618 C169.827254,60.8616866 171.181905,62.746404 173.368337,62.746404 C175.491918,62.746404 176.878664,60.8917111 176.878664,58.56618 L176.878664,58.56618 Z M166.807704,72.7704802 C165.823476,72.3310313 165.638933,71.4193794 166.161804,70.4777031 L166.624499,69.6274649 C167.14737,68.6844238 167.886879,68.4960886 168.841688,68.9682915 C169.979702,69.534662 171.211325,69.8799434 172.5058,69.8799434 C175.030561,69.8799434 176.878664,68.5288425 176.878664,65.3858272 L176.878664,64.568343 C175.891761,66.2033114 174.044995,67.0822093 171.950834,67.0822093 C167.57797,67.0822093 164.40731,63.2499961 164.40731,58.56618 C164.40731,53.8837286 167.57797,50.0515154 171.950834,50.0515154 C174.044995,50.0515154 175.800827,50.9304133 176.785055,52.5954062 L176.785055,51.8734544 C176.785055,50.8662701 177.370778,50.3967967 178.448616,50.3967967 L180.542776,50.3967967 C181.619276,50.3967967 182.204999,50.9931917 182.204999,52.0931788 L182.204999,65.0719351 C182.204999,71.6718579 178.10895,74.121581 173.091523,74.121581 C170.751305,74.121581 168.594293,73.6507429 166.807704,72.7704802 L166.807704,72.7704802 Z M152.552435,65.0405459 L152.552435,52.0931788 C152.552435,50.9931917 153.138158,50.3967967 154.214659,50.3967967 L156.248642,50.3967967 C157.294385,50.3967967 157.910865,50.9931917 157.910865,52.0931788 L157.910865,53.9164826 C158.435074,50.742078 160.867563,50.0515154 161.97482,50.0515154 C162.005578,50.0515154 162.376001,50.0515154 162.437515,50.0815398 C163.237201,50.0815398 163.392324,50.7734672 163.392324,51.371227 L163.392324,54.1989855 C163.392324,55.1406618 162.898872,55.5500863 162.191458,55.4559186 C161.913306,55.4231647 161.698006,55.4231647 161.451949,55.4231647 C159.23476,55.4231647 158.095408,56.9325763 158.095408,59.8545024 L158.095408,65.0405459 C158.095408,66.140533 157.511022,66.736928 156.433185,66.736928 L154.214659,66.736928 C153.138158,66.736928 152.552435,66.140533 152.552435,65.0405459 L152.552435,65.0405459 Z M133.216888,59.8858916 L133.216888,52.0931788 C133.216888,50.9931917 133.802611,50.3967967 134.879111,50.3967967 L137.097638,50.3967967 C138.175475,50.3967967 138.761198,50.9931917 138.761198,52.0931788 L138.761198,59.4150534 C138.761198,61.174214 139.345584,62.6208472 140.97705,62.6208472 C142.609853,62.6208472 143.594082,61.2069679 143.594082,59.0383829 L143.594082,52.0931788 C143.594082,50.9931917 144.179805,50.3967967 145.257642,50.3967967 L147.473494,50.3967967 C148.551332,50.3967967 149.137055,50.9931917 149.137055,52.0931788 L149.137055,65.0405459 C149.137055,66.140533 148.551332,66.736928 147.473494,66.736928 L145.257642,66.736928 C144.179805,66.736928 143.594082,66.140533 143.594082,65.0405459 L143.594082,64.4427861 C142.763639,66.0777546 141.19235,67.0822093 138.913647,67.0822093 C134.296063,67.0822093 133.216888,63.1544638 133.216888,59.8858916 L133.216888,59.8858916 Z M125.736215,58.56618 C125.736215,56.2420136 124.073992,54.5442668 121.85814,54.5442668 C119.640951,54.5442668 118.008148,56.2720381 118.008148,58.56618 C118.008148,60.8616866 119.640951,62.6208472 121.85814,62.6208472 C124.073992,62.6208472 125.736215,60.8917111 125.736215,58.56618 L125.736215,58.56618 Z M112.804841,58.56618 C112.804841,53.8523394 116.591982,50.0515154 121.85814,50.0515154 C127.153718,50.0515154 130.910102,53.8523394 130.910102,58.56618 C130.910102,63.2800206 127.153718,67.0822093 121.85814,67.0822093 C116.591982,67.0822093 112.804841,63.2800206 112.804841,58.56618 L112.804841,58.56618 Z M101.443418,65.0405459 L101.443418,57.8442281 L93.9614077,46.8129677 C93.192479,45.6502021 93.6845934,44.739915 95.0392451,44.739915 L98.0267002,44.739915 C98.9199947,44.739915 99.5351376,45.0851963 100.028589,45.8699266 L104.277087,52.9420523 L108.55768,45.8699266 C109.019037,45.0851963 109.666274,44.739915 110.558232,44.739915 L113.51493,44.739915 C114.868244,44.739915 115.330938,45.6502021 114.531253,46.8129677 L107.110757,57.7500605 L107.110757,65.0405459 C107.110757,66.140533 106.525034,66.736928 105.448533,66.736928 L103.108316,66.736928 C102.029141,66.736928 101.443418,66.140533 101.443418,65.0405459 L101.443418,65.0405459 Z"/>
</svg>
